<svg width="455" height="558" viewBox="0 0 455 558" fill="none" xmlns="http://www.w3.org/2000/svg">
<mask id="mask0_58_37" style="mask-type:luminance" maskUnits="userSpaceOnUse" x="-1" y="0" width="401" height="524">
<path d="M-0.00402832 0H399.677V524H-0.00402832V0Z" fill="white"/>
</mask>
<g mask="url(#mask0_58_37)">
<path d="M70.751 311.686C75.176 313.586 78.9367 314.504 80.6902 314.881C100.444 319.141 117.779 309.06 137.657 297.51C140.563 295.821 143.005 294.279 145.1 292.861C157.234 284.658 157.934 280.557 171.116 275.543C175.688 273.807 184.308 270.994 190.787 263.027C192.346 261.109 197.471 254.807 195.383 249.74C194.977 248.746 194.059 247.251 190.787 245.397C184.132 241.637 177.464 241.92 174.181 241.825C166.591 241.602 161.206 238.777 150.426 233.14C145.842 230.74 130.99 222.389 121.563 204.53C115.867 193.738 114.272 178.892 113.896 171.854V171.831C111.077 171.925 107.987 171.696 104.734 170.936C101.803 170.254 96.7016 169.059 92.1821 165.799C83.2081 167.235 75.6526 169.212 69.7035 171.065C58.4938 174.555 41.7588 179.945 25.2589 193.544C12.3659 204.165 0.779572 218.847 2.52109 220.877C2.87457 221.289 3.86935 221.072 5.84035 220.625C10.1062 219.653 12.2364 219.171 16.3144 216.535C23.3054 212.027 42.1882 213.604 46.7131 213.981C49.6086 214.222 57.388 214.969 68.5089 217.752C76.7945 219.83 86.9447 223.042 98.3135 228.026C99.7673 228.662 101.097 229.268 102.315 229.839C116.108 236.3 115.891 238.689 128.712 242.843C145.107 248.163 160.353 249.081 160.388 252.553C160.406 253.847 158.299 254.789 156.557 255.619C147.254 260.038 148.525 260.95 142.982 264.616C140.846 266.028 137.698 267.846 132.543 270.435C115.961 278.756 107.67 282.917 97.8018 283.97C95.5365 284.217 86.4505 285.064 75.0705 282.44C72.6868 281.887 69.71 281.204 66.4203 280.092C63.3306 279.045 59.9706 277.626 56.57 275.596C55.157 274.749 53.7393 273.802 52.3328 272.73C41.2934 264.328 36.9803 253.042 35.9865 253.576C35.2619 253.965 37.7807 259.849 39.8165 264.816C49.6557 288.806 47.9781 290.913 52.3328 297.257C57.4111 304.653 64.702 309.085 70.751 311.686Z" fill="#FF9D46"/>
<path d="M110.948 377.985C111.802 378.944 112.772 379.962 113.932 381.062C116.862 383.852 119.169 386.04 121.305 387.417C123.17 388.617 124.906 389.2 126.825 389.024C132.75 388.477 136.798 381.033 138.205 376.702C139.506 372.671 139.259 368.958 138.77 361.532C138.405 355.971 137.822 352.264 137.822 352.264C137.211 348.392 136.663 346.65 136.687 343.325C136.71 340.089 137.257 337.653 137.411 337.011C138.611 331.957 140.435 331.521 142.842 326.008C143.695 324.054 144.307 322.177 144.766 320.447C145.543 317.487 145.842 314.951 146.049 313.192C146.126 312.532 146.42 309.802 146.326 305.395C146.254 302.158 145.972 297.904 145.107 292.861C143.013 294.279 140.571 295.82 137.663 297.51C117.786 309.06 100.45 319.141 80.6968 314.881C78.9432 314.504 75.1826 313.586 70.7576 311.686C70.976 319.364 70.9991 325.096 69.1863 331.763C64.7613 348.016 55.3403 348.081 47.9495 365.51C45.4899 371.318 40.3829 383.845 44.7256 397.368C45.8258 400.799 48.6852 409.696 57.0476 414.244C70.2338 421.412 85.963 411.72 88.3346 410.26C88.8167 409.961 89.2878 409.654 89.7467 409.343C95.7014 405.282 99.4093 400.222 100.091 399.263C101.004 397.98 101.998 396.432 104.264 392.061C106.07 388.571 108.406 383.833 110.948 377.985Z" fill="#3A80FE"/>
<path d="M68.419 266.828C65.4061 269.576 58.6621 274.49 56.5736 275.596C59.9743 277.626 63.3342 279.045 66.424 280.092C68.9835 279.074 76.8628 274.478 80.4578 272.23C83.4532 270.359 86.5541 268.417 89.7141 265.051C93.5923 260.926 93.0917 259.402 96.893 256.048C97.811 255.242 99.0769 254.136 100.794 253.124C101.265 249.21 102.19 242.578 102.318 237.96C102.402 235.129 102.395 232.416 102.318 229.839C101.101 229.268 99.7709 228.662 98.3171 228.026C86.9492 223.042 76.7981 219.829 68.5125 217.752C70.973 220.7 73.4798 224.414 75.4859 228.974C77.8456 234.334 81.1176 241.784 78.9579 250.658C76.9101 259.102 71.0017 264.48 68.419 266.828Z" fill="#FF9D46"/>
<path d="M122.602 254.918C121.238 253.688 119.36 252.365 116.912 251.453C111.016 249.258 105.832 250.97 104.261 251.517C102.942 251.976 101.789 252.535 100.795 253.124C99.0762 254.136 97.8113 255.242 96.8933 256.048C93.092 259.402 93.5926 260.926 89.7144 265.052C86.5544 268.417 83.4535 270.359 80.4582 272.23C76.8632 274.478 68.9838 279.074 66.4243 280.092C69.713 281.204 72.6908 281.886 75.0745 282.44C86.4544 285.064 95.5396 284.217 97.8057 283.969C107.674 282.916 115.965 278.756 132.547 270.435C137.701 267.846 140.85 266.028 142.986 264.616C143.403 262.209 139.667 257.861 137.902 256.766C136.466 255.883 132.605 253.488 128.075 253.536C126.045 253.553 124.314 254.054 122.602 254.918Z" fill="#3A80FE"/>
<path d="M74.5625 125.179C71.7967 130.14 71.3673 136.642 73.8324 141.973C75.9274 146.505 79.6464 149.176 83.5542 150.965C86.1488 152.153 88.8259 152.953 91.1744 153.654C91.1856 153.654 91.1976 153.654 91.2096 153.666C94.5631 151.841 98.8123 148.593 101.213 143.068C105.049 134.258 102.031 124.667 96.8348 118.788C95.3228 117.082 93.6923 115.758 92.0979 114.734C92.0332 114.746 91.9684 114.758 91.9036 114.775C87.0141 115.929 80.1405 117.559 75.8691 123.184C75.3981 123.796 74.9623 124.461 74.5625 125.179Z" fill="#262626"/>
<path d="M165.259 75.3856C163.282 73.6311 156.397 66.9473 152.108 58.2379L151.848 58.3675C148.606 57.791 139.909 56.6787 129.976 61.8514C127.022 63.3866 119.278 67.5645 115.071 76.9855C112.635 82.4405 112.305 87.6012 112.528 91.2905C111.599 91.161 110.634 91.0731 109.634 91.0379C100.225 90.7085 93.257 94.9568 90.7974 96.4984C87.9733 98.2751 77.7046 104.73 75.9215 116.464C75.5338 119.012 75.6272 121.307 75.8752 123.184C80.1466 117.559 87.0201 115.929 91.9097 114.775C91.9745 114.757 92.0392 114.746 92.104 114.734C105.309 111.674 116.466 116.152 121.485 118.241C127.87 120.906 132.971 124.42 136.925 127.857C139.103 129.745 140.933 131.616 142.439 133.305C143.598 132.505 144.57 131.993 145.029 131.752C147.129 130.639 150.042 129.593 154.702 129.381C155.585 129.339 156.903 129.31 158.715 129.492C162.97 129.905 169.931 131.464 180.259 136.677C191.103 142.155 189.879 143.697 202.166 149.823C208.45 152.959 211.416 153.878 211.293 155.301C211.087 157.567 203.314 157.784 181.536 160.957C169.078 162.774 165.688 163.563 159.087 162.963C157.821 162.845 156.515 162.728 155.185 162.557C149.713 161.868 143.934 160.414 139.738 155.666C139.227 155.083 137.885 153.565 136.808 151.394C128.823 153 122.003 153.877 116.736 154.383C100.031 156.007 93.8631 154.454 91.2157 153.666C91.2036 153.659 91.1916 153.659 91.1805 153.654C88.832 152.953 86.1549 152.153 83.5603 150.965C83.8545 153.436 84.5892 156.396 86.2965 159.344C87.9029 162.115 89.9739 164.21 92.1864 165.799C96.7058 169.059 101.807 170.254 104.738 170.937C107.992 171.695 111.081 171.925 113.9 171.83V171.854C114.276 178.892 115.871 193.738 121.567 204.53C130.994 222.389 145.847 230.739 150.43 233.141C161.21 238.778 166.595 241.602 174.186 241.826C177.469 241.919 184.136 241.637 190.791 245.398C194.063 247.251 194.981 248.746 195.387 249.74C197.476 254.807 192.351 261.108 190.791 263.027C184.313 270.995 175.692 273.807 171.12 275.543C157.939 280.556 157.239 284.658 145.104 292.861C145.97 297.904 146.252 302.158 146.323 305.395C146.417 309.802 146.122 312.533 146.046 313.192C145.84 314.951 145.54 317.487 144.764 320.447C153.149 326.849 174.245 341.072 201.348 342.555C224.656 343.832 241.868 336.029 255.673 329.774C260.48 327.59 266.341 324.901 272.679 321.247C283.206 315.175 295.074 306.454 305.737 293.026C311.263 286.071 331.222 260.926 330.234 226.985C330.128 223.254 328.668 216.911 325.804 206.148C324.544 201.4 323.002 195.798 321.184 189.178C310.486 150.164 304.455 140.261 297.752 132.723C292.821 127.174 283.33 116.776 270.59 116.211C266.124 116.011 265.235 117.199 262.069 116.211C252.784 113.305 254.06 101.118 243.428 85.8532C239.967 80.8868 234.442 72.9547 224.256 68.277C215.235 64.1398 206.503 64.3637 199.224 64.5516C194.11 64.6811 187.496 64.9051 179.516 67.7468C173.727 69.8067 168.99 72.6197 165.265 75.3912L165.259 75.3856Z" fill="#A6C2FA"/>
<path d="M83.2264 457.371C83.0673 476.56 82.2021 474.018 82.4556 484.434C82.6731 493.442 83.579 506.188 86.727 521.588L369.179 513.579C371.085 503.175 372.71 489.1 371.845 472.471C371.45 464.821 370.668 459.684 369.326 450.569C366.001 428.025 364.706 416.027 356.786 409.496C355.015 408.042 348.107 402.794 348.907 401.381C349.519 400.305 354.144 402.276 354.603 401.381C355.11 400.398 350.384 396.521 342.604 391.807C332.16 385.469 324.728 382.792 313.4 377.749C310.517 376.467 306.64 374.695 302.014 372.453C300.22 373.636 294.77 373.042 287.097 372.983C273.663 372.883 264.184 372.812 255.821 376.319C245.471 380.662 237.357 390.26 233.955 400.004C229.406 413.038 233.832 425.054 231.224 425.513C229.289 425.854 227.482 420.47 219.986 410.637C215.148 404.282 210.2 397.791 207.54 398.792C205.345 399.616 206.322 404.888 205.716 414.885C205.01 426.501 202.462 439.713 199.944 439.788C197.825 439.848 197.79 430.515 189.922 420.352C187.209 416.84 184.056 412.762 181.119 413.368C176.63 414.291 178.96 424.872 170.792 433.41C165.879 438.553 159.765 440.224 157.735 440.694C156.028 441.095 151.08 442.19 145.59 440.694C135.403 437.929 130.36 428.161 125.853 419.44C122.987 413.897 120.186 408.325 119.781 400.31C119.521 395.256 120.303 390.86 121.298 387.417C119.162 386.04 116.856 383.852 113.925 381.062C112.766 379.962 111.795 378.944 110.942 377.985C108.4 383.833 106.063 388.571 104.257 392.061C101.992 396.432 100.997 397.98 100.085 399.263C99.4025 400.222 95.6955 405.282 89.74 409.343C88.0753 413.533 86.5272 418.252 85.3038 423.471C82.7323 434.416 83.356 441.684 83.2264 457.371Z" fill="#A6C2FA"/>
<path d="M101.218 143.068C98.8176 148.593 94.5693 151.841 91.2149 153.666C93.8624 154.454 100.03 156.007 116.735 154.383C122.002 153.877 128.822 153.001 136.807 151.394C135.795 149.358 135.006 146.745 135.354 143.797C135.959 138.613 139.72 135.176 142.439 133.305C140.932 131.617 139.102 129.746 136.925 127.856C132.971 124.42 127.869 120.907 121.484 118.242C116.465 116.152 105.308 111.674 92.1033 114.735C93.6976 115.758 95.3281 117.082 96.8401 118.788C102.036 124.667 105.055 134.259 101.218 143.068Z" fill="white"/>
<path d="M102.313 237.959C102.183 242.578 101.26 249.21 100.789 253.123C101.784 252.535 102.937 251.976 104.255 251.517C105.826 250.969 111.01 249.257 116.907 251.452C119.354 252.365 121.232 253.688 122.597 254.918C124.309 254.053 126.039 253.553 128.069 253.535C132.6 253.488 136.46 255.883 137.896 256.766C139.661 257.86 143.398 262.209 142.98 264.615C148.523 260.949 147.253 260.038 156.555 255.618C158.298 254.788 160.404 253.847 160.386 252.553C160.351 249.081 145.104 248.163 128.71 242.843C115.889 238.689 116.106 236.3 102.313 229.839C102.39 232.416 102.395 235.129 102.313 237.959Z" fill="#D55360"/>
<path d="M121.303 387.417C120.308 390.859 119.526 395.256 119.784 400.31C120.19 408.324 122.991 413.897 125.857 419.44C130.365 428.161 135.408 437.929 145.593 440.695C151.083 442.19 156.032 441.095 157.739 440.695C159.769 440.224 165.883 438.553 170.796 433.41C178.964 424.872 176.634 414.291 181.124 413.368C184.06 412.762 187.214 416.84 189.927 420.352C197.794 430.514 197.829 439.847 199.947 439.788C202.466 439.712 205.015 426.501 205.721 414.886C206.327 404.888 205.35 399.616 207.545 398.791C210.204 397.791 215.153 404.282 219.99 410.637C227.487 420.47 229.293 425.854 231.229 425.513C233.836 425.054 229.411 413.038 233.96 400.004C237.361 390.26 245.476 380.662 255.826 376.319C264.188 372.812 273.667 372.883 287.102 372.982C294.775 373.042 300.224 373.636 302.018 372.453C302.302 372.271 302.495 372.047 302.589 371.765C303.367 369.535 297.07 367.057 290.444 359.926C284.118 353.117 281.47 346.355 277.386 335.935C275.85 332.022 274.15 327.091 272.679 321.247C266.341 324.901 260.48 327.59 255.673 329.774C241.869 336.029 224.656 343.831 201.348 342.554C174.245 341.072 153.149 326.849 144.764 320.447C144.305 322.177 143.693 324.054 142.839 326.008C140.432 331.521 138.609 331.957 137.408 337.011C137.256 337.653 136.708 340.089 136.685 343.326C136.661 346.65 137.209 348.392 137.82 352.264C137.82 352.264 138.403 355.971 138.768 361.532C139.256 368.958 139.503 372.671 138.202 376.701C136.797 381.033 132.747 388.477 126.822 389.023C124.904 389.2 123.168 388.618 121.303 387.417Z" fill="#3A80FE"/>
<path d="M136.809 151.394C137.886 153.565 139.228 155.083 139.74 155.666C143.936 160.414 149.714 161.868 155.187 162.557L155.222 162.285C157.634 160.267 160.241 157.349 162.007 153.288C162.778 151.524 164.972 146.274 163.648 139.601C162.783 135.236 160.735 131.881 158.717 129.492C156.904 129.31 155.587 129.339 154.704 129.38C150.044 129.592 147.131 130.639 145.03 131.752C144.571 131.993 143.6 132.505 142.441 133.305C139.722 135.176 135.962 138.613 135.356 143.797C135.009 146.745 135.797 149.358 136.809 151.394Z" fill="#262626"/>
<path d="M324.058 109.721C326.677 103.548 331.132 90.4548 330.978 77.0381C330.896 70.0129 330.649 48.1699 314.108 31.2221C300.191 16.9647 282.856 14.4991 276 13.5282C268.769 12.4984 258.353 10.786 246.225 15.3994C232.374 20.6657 227.924 27.133 225.041 31.4701C224.4 28.31 222.123 19.2064 213.838 11.7158C204.941 3.66587 194.896 2.71257 191.889 2.47133C176.548 1.24154 165.72 9.85629 163.12 12.0571C161.819 13.1633 145.867 27.1681 148.798 47.9876C149.303 51.5826 150.527 55.0425 152.098 58.2378C156.388 66.9472 163.273 73.631 165.25 75.3855C168.975 72.6131 173.712 69.801 179.502 67.7411C187.481 64.8994 194.095 64.6754 199.209 64.5459C206.488 64.358 215.22 64.1341 224.242 68.2704C234.427 72.949 239.952 80.8811 243.412 85.8475C254.045 101.111 252.768 113.298 262.054 116.206C265.22 117.194 266.109 116.005 270.575 116.206C283.315 116.77 292.806 127.168 297.738 132.717C304.44 140.255 310.471 150.159 321.169 189.171C322.988 195.791 324.529 201.393 325.789 206.142C327.524 208.42 343.048 227.968 362.436 228.091C365.644 228.115 375.488 228.015 384.379 221.113C395.607 212.398 398.614 198.04 396.842 187.447C396.019 182.511 394.13 178.25 387.368 168.747C379.748 158.026 369.463 143.791 349.967 127.85C343.6 122.649 334.974 116.217 324.053 109.714L324.058 109.721Z" fill="#3A80FE"/>
<path d="M155.215 162.286L155.179 162.557C156.509 162.727 157.816 162.845 159.081 162.963C165.683 163.563 169.073 162.774 181.53 160.956C203.308 157.785 211.081 157.566 211.287 155.301C211.411 153.877 208.446 152.959 202.161 149.823C189.874 143.697 191.098 142.156 180.253 136.677C169.926 131.464 162.964 129.904 158.71 129.492C160.729 131.881 162.777 135.236 163.641 139.602C164.965 146.274 162.77 151.524 161.999 153.288C160.234 157.349 157.627 160.267 155.215 162.286Z" fill="white"/>
<path d="M144.962 179.657C145.569 179.657 146.169 179.428 146.634 178.962C147.552 178.039 147.546 176.55 146.622 175.632C142.944 171.972 140.003 167.394 138.119 162.386C137.66 161.168 136.301 160.556 135.089 161.01C133.87 161.468 133.259 162.821 133.712 164.039C135.83 169.676 139.148 174.837 143.298 178.969C143.757 179.428 144.356 179.651 144.957 179.651L144.962 179.657Z" fill="black"/>
<path d="M172.271 190.496C174.296 190.496 175.961 190.373 177.132 190.289C192.702 189.166 203.53 180.828 208.596 175.961C209.531 175.061 209.561 173.572 208.661 172.631C207.76 171.695 206.271 171.666 205.329 172.566C200.716 176.997 190.878 184.582 176.784 185.6C172.571 185.906 161.379 186.719 150.957 179.309C149.416 178.215 147.963 176.986 146.627 175.655C145.703 174.737 144.214 174.744 143.297 175.661C142.379 176.579 142.384 178.074 143.302 178.992C144.821 180.498 146.474 181.898 148.221 183.14C157.054 189.425 166.24 190.496 172.259 190.496H172.271Z" fill="black"/>
<path d="M163.143 165.517C166.962 165.517 170.539 164.981 176.854 164.033C178.354 163.809 180.013 163.562 181.873 163.287C187.64 162.444 192.471 161.809 196.355 161.297C201.957 160.556 205.657 160.067 208.183 159.52C209.995 159.126 213.372 158.396 213.637 155.519C213.873 152.806 211.513 151.688 207.229 149.658C206.064 149.105 204.746 148.481 203.215 147.716C196.996 144.615 194.318 142.714 191.729 140.873C189.252 139.107 186.687 137.289 181.314 134.576C172.764 130.257 165.232 127.762 158.942 127.15C156.976 126.95 155.517 126.985 154.587 127.027C150.35 127.221 146.96 128.057 143.919 129.668C143.46 129.91 142.377 130.481 141.094 131.363C137.787 133.64 133.703 137.595 133.009 143.52C132.662 146.486 133.226 149.487 134.692 152.441C135.898 154.871 137.387 156.566 137.952 157.208C142.847 162.751 149.574 164.228 154.887 164.893C156.158 165.058 157.399 165.169 158.6 165.281L158.865 165.305C160.407 165.445 161.789 165.51 163.137 165.51L163.143 165.517ZM207.276 154.907C204.846 155.425 200.65 155.978 195.731 156.63C191.835 157.149 186.992 157.784 181.19 158.631C179.319 158.902 177.653 159.155 176.148 159.379C167.762 160.638 164.625 161.109 159.289 160.621L159.03 160.597C157.87 160.491 156.67 160.379 155.476 160.226C150.697 159.626 145.308 158.431 141.494 154.113C140.994 153.542 139.841 152.23 138.911 150.352C137.858 148.234 137.446 146.121 137.687 144.073C138.175 139.901 141.265 136.971 143.772 135.247C144.825 134.517 145.702 134.058 146.119 133.841C147.638 133.034 150.185 131.946 154.805 131.734C155.652 131.693 156.835 131.669 158.476 131.834H158.488C164.12 132.382 171.281 134.782 179.196 138.778C184.25 141.332 186.557 142.973 189.005 144.709C191.741 146.651 194.566 148.663 201.115 151.929C202.692 152.712 204.033 153.353 205.217 153.912C205.928 154.248 206.652 154.589 207.282 154.907H207.276Z" fill="black"/>
<path d="M103.751 157.455C107.27 157.455 111.595 157.249 116.961 156.732C123.651 156.089 130.466 155.072 137.227 153.719C138.327 153.519 139.163 152.559 139.163 151.4C139.163 150.1 138.11 149.047 136.809 149.047H136.574L136.339 149.093C129.724 150.423 123.052 151.417 116.508 152.047C100.173 153.636 94.2233 152.106 92.1117 151.482L92.0701 151.459L91.8406 151.4C89.5688 150.723 86.9917 149.952 84.5321 148.828C80.2542 146.869 77.5355 144.38 75.9708 140.99C73.8989 136.506 74.1525 130.758 76.6176 126.332C76.9591 125.715 77.3357 125.144 77.7354 124.626C81.5136 119.654 87.8329 118.159 92.4467 117.077L92.629 117.035C105.352 114.087 116.02 118.529 120.575 120.425C125.929 122.66 130.907 125.762 135.374 129.646C137.215 131.246 138.998 133.006 140.675 134.882C141.54 135.854 143.029 135.936 144 135.071C144.971 134.206 145.053 132.717 144.189 131.746C142.381 129.722 140.452 127.815 138.463 126.085C133.62 121.872 128.206 118.506 122.386 116.076C117.844 114.187 105.792 109.173 91.6231 112.433C91.5287 112.451 91.4288 112.475 91.3344 112.498C86.3273 113.681 78.7774 115.47 73.9933 121.766C73.464 122.455 72.9634 123.22 72.5044 124.037C69.2795 129.821 68.9677 137.072 71.6919 142.968C73.7286 147.375 77.2885 150.694 82.5722 153.113C85.2502 154.336 88.0337 155.178 90.2989 155.854L90.3581 155.878L90.534 155.925C92.9704 156.649 96.7662 157.455 103.744 157.455H103.751Z" fill="black"/>
<path d="M155.222 164.639C155.758 164.639 156.293 164.457 156.728 164.092C160.006 161.35 162.507 158.031 164.161 154.23C166.344 149.228 166.944 144.156 165.949 139.149C165.137 135.047 163.308 131.292 160.507 127.98L160.371 127.833C159.453 126.915 157.958 126.909 157.04 127.833C156.152 128.721 156.122 130.133 156.94 131.057C159.2 133.746 160.677 136.777 161.33 140.067C162.136 144.115 161.63 148.251 159.841 152.352C158.482 155.483 156.416 158.219 153.704 160.485C152.71 161.321 152.574 162.803 153.41 163.798C153.874 164.357 154.545 164.639 155.216 164.639H155.222Z" fill="black"/>
<path d="M91.1887 156.031C91.5718 156.031 91.9539 155.937 92.3009 155.754C92.313 155.749 92.325 155.742 92.3361 155.737C95.8848 153.807 100.68 150.205 103.376 144.009C107.977 133.441 103.682 122.979 98.6035 117.235C97.0906 115.529 95.3546 114.04 93.4364 112.798C93.3484 112.734 93.254 112.675 93.1541 112.616C92.0242 111.969 90.589 112.357 89.9413 113.487C89.3176 114.575 89.6591 115.952 90.6945 116.629L90.8296 116.723C92.4073 117.735 93.837 118.959 95.0788 120.36C99.5687 125.438 102.54 134.141 99.0625 142.138C96.9499 147.004 93.1486 149.911 90.2707 151.512L89.9709 151.612L89.5702 151.988C88.6291 152.883 88.594 154.378 89.4879 155.319C89.9533 155.807 90.5715 156.049 91.1952 156.049L91.1887 156.031ZM90.6473 116.588L90.6649 116.599C90.6649 116.599 90.6538 116.594 90.6473 116.588Z" fill="black"/>
<path d="M112.713 174.208C113.131 174.208 113.555 174.202 113.972 174.185C119.092 174.025 124.246 172.843 129.295 170.678C131.002 169.942 133.403 168.082 135.339 166.582C136.086 166.004 136.857 165.405 137.163 165.216C138.269 164.528 138.605 163.08 137.916 161.974C137.227 160.868 135.78 160.532 134.674 161.22C134.168 161.539 133.45 162.092 132.455 162.863C130.92 164.051 128.596 165.852 127.436 166.352C125.759 167.076 120.651 169.271 113.825 169.483C110.931 169.576 108.053 169.301 105.269 168.647C102.439 167.988 97.7082 166.887 93.5598 163.892C91.388 162.333 89.6289 160.403 88.3279 158.167C87.0398 155.937 86.2153 153.424 85.8924 150.688C85.7388 149.399 84.5682 148.476 83.2736 148.628C81.9846 148.781 81.0611 149.952 81.2138 151.24C81.6145 154.612 82.6379 157.732 84.2508 160.521C85.8859 163.339 88.0928 165.757 90.806 167.712C95.7131 171.254 101.233 172.537 104.199 173.231C106.976 173.878 109.836 174.208 112.713 174.208Z" fill="black"/>
<path d="M75.8761 125.538C75.9761 125.538 76.0815 125.533 76.1879 125.521C77.476 125.349 78.3829 124.167 78.2117 122.879C77.9415 120.819 77.9535 118.777 78.2533 116.823C79.3305 109.75 83.9729 103.583 92.0522 98.4993C94.1879 97.1576 100.696 93.0796 109.558 93.3979C110.441 93.4266 111.329 93.5089 112.212 93.6274C117.544 94.3741 121.892 96.7634 127.906 100.071C132.601 102.653 137.033 105.731 141.063 109.203C142.046 110.051 143.535 109.944 144.382 108.956C145.229 107.973 145.124 106.484 144.135 105.637C139.857 101.947 135.162 98.6872 130.177 95.9398C123.963 92.5206 119.061 89.826 112.871 88.9543C111.83 88.8072 110.777 88.7193 109.735 88.6786C102.891 88.4371 96.1061 90.396 89.563 94.4981C80.266 100.353 74.8989 107.614 73.6099 116.105C73.2453 118.5 73.2278 120.984 73.5572 123.485C73.7163 124.667 74.7222 125.533 75.8872 125.533L75.8761 125.538Z" fill="black"/>
<path d="M209.253 133.505C209.8 133.505 210.347 133.317 210.794 132.934C211.777 132.081 211.883 130.599 211.036 129.616C209.694 128.069 208.37 126.621 206.987 125.191C197.984 115.847 186.768 104.219 171.075 102.635C167.291 102.26 161.431 102.3 154.963 104.648C141.659 109.509 138.064 117.106 136.881 119.606C135.704 122.096 134.933 124.779 134.592 127.574C134.432 128.863 135.35 130.04 136.639 130.199C137.927 130.364 139.105 129.439 139.264 128.151C139.546 125.85 140.176 123.655 141.141 121.619C145.089 113.269 153.422 110.227 156.558 109.08C162.207 107.032 167.315 106.99 170.604 107.32C184.579 108.726 194.683 119.212 203.603 128.463C204.928 129.833 206.199 131.217 207.476 132.699C207.941 133.235 208.599 133.512 209.258 133.512L209.253 133.505Z" fill="black"/>
<path d="M112.518 93.6446C112.566 93.6446 112.613 93.6446 112.666 93.6446C113.967 93.5678 114.949 92.45 114.873 91.149C114.59 86.5009 115.379 82.0583 117.215 77.9451C121.175 69.0766 128.613 65.2114 131.055 63.9399C137.498 60.5855 144.542 59.4557 151.427 60.6855C152.704 60.9149 153.927 60.0618 154.157 58.7792C154.386 57.4967 153.533 56.278 152.25 56.0485C144.33 54.6429 136.251 55.9254 128.878 59.762C126.077 61.2212 117.539 65.6583 112.914 76.0269C110.795 80.7693 109.847 86.0947 110.171 91.4321C110.248 92.6795 111.283 93.6446 112.518 93.6446Z" fill="black"/>
<path d="M165.249 77.7388C165.896 77.7388 166.543 77.4742 167.009 76.9449C167.874 75.9733 167.779 74.4844 166.809 73.6201C165.991 72.89 158.67 66.2525 154.204 57.1905C152.586 53.9009 151.55 50.6945 151.12 47.652C148.396 28.2862 162.966 15.2642 164.637 13.8401C168.268 10.7684 178.189 3.71892 191.693 4.8076C201.673 5.60784 208.382 9.95053 212.254 13.4518C219.421 19.9303 221.892 27.8096 222.728 31.9284C222.987 33.2054 224.229 34.0234 225.506 33.7643C226.783 33.5061 227.6 32.2643 227.342 30.9873C226.388 26.3032 223.575 17.3413 215.407 9.95644C211 5.96679 203.368 1.01801 192.07 0.111808C176.817 -1.10623 165.672 6.79063 161.594 10.2448C159.718 11.8394 143.383 26.4383 146.46 48.2988C146.96 51.8355 148.143 55.5193 149.979 59.2614C154.839 69.1238 162.789 76.3388 163.684 77.1327C164.131 77.5325 164.69 77.7268 165.243 77.7268L165.249 77.7388Z" fill="black"/>
<path d="M324.061 112.074C324.979 112.074 325.851 111.533 326.227 110.639C327.939 106.608 333.506 92.2614 333.335 77.0098C333.247 69.6245 332.988 47.1875 315.794 29.5753C301.307 14.7348 283.165 12.1632 276.333 11.1923L275.603 11.0864C268.466 10.0625 257.679 8.51493 245.387 13.193C230.629 18.8005 225.903 25.9155 223.079 30.1573C222.361 31.2409 222.656 32.7002 223.738 33.4238C224.821 34.1419 226.28 33.8476 227.004 32.765C229.675 28.7452 233.718 22.6666 247.064 17.5887C258.22 13.346 267.883 14.7288 274.939 15.741L275.674 15.8469C299.065 19.1595 308.773 29.1108 312.428 32.8529C328.304 49.1169 328.545 70.1362 328.628 77.0385C328.792 91.3851 323.514 104.966 321.896 108.785C321.39 109.98 321.949 111.363 323.143 111.874C323.444 112.004 323.756 112.063 324.061 112.063V112.074Z" fill="black"/>
<path d="M362.783 230.451C371.692 230.451 379.442 227.938 385.833 222.978C398.472 213.169 400.92 197.504 399.178 187.066C398.225 181.334 395.824 176.555 389.298 167.388C382.255 157.478 371.61 142.502 351.468 126.032C343.277 119.336 334.462 113.169 325.265 107.696C322.428 106.014 319.538 104.383 316.673 102.842C315.525 102.224 314.101 102.66 313.484 103.8C312.871 104.949 313.302 106.372 314.443 106.99C317.25 108.497 320.074 110.091 322.851 111.739C331.843 117.094 340.463 123.126 348.478 129.674C368.132 145.745 378.554 160.409 385.45 170.112C392.199 179.603 393.8 183.529 394.524 187.836C396.054 196.993 393.941 210.715 382.937 219.253C377.317 223.613 370.415 225.791 362.454 225.738C344.118 225.62 329.289 206.854 327.659 204.718C326.871 203.683 325.394 203.483 324.358 204.272C323.322 205.06 323.122 206.537 323.911 207.572C325.682 209.902 341.835 230.316 362.418 230.451C362.536 230.451 362.653 230.451 362.765 230.451H362.783Z" fill="black"/>
<path d="M206.416 345.05C227.664 345.05 243.617 337.817 256.628 331.922C262.2 329.391 267.696 326.832 273.851 323.283C287.338 315.504 298.366 306.083 307.575 294.485C324.839 272.748 333.254 250.016 332.583 226.914C332.466 222.76 330.842 215.928 328.076 205.542L327.605 203.795C326.517 199.734 325.24 195.08 323.793 189.802L323.451 188.548C312.282 147.81 305.998 138.454 299.508 131.152C294.694 125.738 284.684 114.475 270.691 113.852C268.561 113.757 267.161 113.946 266.031 114.099C264.73 114.275 264.077 114.363 262.771 113.957C258.723 112.687 257.227 109.32 254.498 102.43C252.527 97.4572 250.078 91.2731 245.359 84.5004C241.864 79.4804 236.009 71.0782 225.24 66.1294C215.719 61.7627 206.539 62.0042 199.166 62.192C194.417 62.3095 187.233 62.4928 178.73 65.5233C173.452 67.3999 168.45 70.0834 163.86 73.4961C161.477 75.2673 159.194 77.2503 157.069 79.398C156.158 80.3224 156.163 81.8104 157.087 82.7293C158.011 83.6408 159.5 83.6352 160.418 82.7108C162.371 80.7342 164.478 78.9094 166.667 77.2799C170.88 74.1439 175.464 71.6834 180.301 69.9659C188.098 67.188 194.559 67.0233 199.278 66.9058C206.527 66.717 214.743 66.5051 223.269 70.4184C232.872 74.8323 238.056 82.2759 241.493 87.2006C245.895 93.5207 248.237 99.4291 250.12 104.172C252.838 111.039 254.992 116.464 261.365 118.459C263.672 119.177 265.124 118.983 266.666 118.776C267.702 118.636 268.779 118.489 270.485 118.564C282.495 119.095 291.611 129.357 295.994 134.288C302.085 141.138 308.016 150.04 318.914 189.802L319.256 191.055C320.88 196.963 322.286 202.082 323.445 206.454V208.502H323.992C326.335 217.37 327.782 223.596 327.882 227.056C328.523 249.022 320.45 270.724 303.897 291.566C295.059 302.694 284.467 311.738 271.504 319.211C265.536 322.654 260.152 325.16 254.697 327.632C241.105 333.793 224.204 341.448 201.473 340.207C176.205 338.824 155.993 326.061 146.189 318.576C145.153 317.787 143.677 317.987 142.888 319.017C142.1 320.052 142.3 321.529 143.33 322.319C153.562 330.132 174.687 343.455 201.214 344.903C202.98 344.996 204.716 345.043 206.416 345.043V345.05Z" fill="black"/>
<path d="M214.015 210.114C215.039 210.114 215.987 209.437 216.281 208.402C216.633 207.155 215.91 205.848 214.662 205.495C213.832 205.259 193.714 199.51 189.412 198.281C178.921 195.285 174.137 193.915 167.799 191.031C162.409 188.577 152.7 182.522 147.333 176.443V176.338L146.632 175.632C145.714 174.714 144.227 174.714 143.302 175.632C142.785 176.15 142.555 176.849 142.626 177.527V178.161L143.167 178.815C149.186 186.053 160.273 192.773 165.846 195.309C172.501 198.34 177.397 199.734 188.118 202.8C192.42 204.03 212.55 209.779 213.38 210.014C213.597 210.073 213.809 210.103 214.021 210.103L214.015 210.114Z" fill="black"/>
<path d="M67.7516 419.223C76.9663 419.223 85.499 414.768 89.5594 412.268C90.0831 411.944 90.5773 411.62 91.0659 411.29C97.1084 407.172 100.969 402.088 102.004 400.629C103.094 399.092 104.152 397.38 106.347 393.143C108.719 388.565 110.99 383.781 113.102 378.921C113.62 377.726 113.073 376.344 111.884 375.825C110.69 375.302 109.307 375.855 108.789 377.043C106.718 381.804 104.494 386.494 102.176 390.978C99.8918 395.386 98.9804 396.768 98.1735 397.898C97.25 399.198 93.8132 403.717 88.423 407.396C87.9937 407.69 87.5523 407.978 87.0933 408.26C71.8056 417.67 61.7785 414.133 58.1714 412.173C50.6335 408.072 47.9685 399.769 46.9673 396.644C42.8078 383.687 47.9324 371.588 50.1163 366.422C53.4697 358.519 57.2128 354.401 60.8374 350.416C65.0274 345.809 68.9814 341.461 71.4586 332.375C73.3417 325.443 73.3296 319.4 73.1122 311.621C73.0826 310.349 72.0415 309.326 70.7581 309.326C69.4755 309.326 68.4049 310.379 68.4049 311.679V311.75C68.6224 319.359 68.6344 324.826 66.916 331.145C64.7387 339.136 61.3195 342.896 57.3599 347.251C53.652 351.329 49.4509 355.948 45.7847 364.586C43.3899 370.235 37.7878 383.463 42.484 398.08C43.6434 401.694 46.7267 411.303 55.9238 416.304C59.7955 418.411 63.8383 419.217 67.7572 419.217L67.7516 419.223Z" fill="black"/>
<path d="M90.0993 318.246C106.664 318.246 121.769 309.467 138.816 299.558C141.617 297.927 144.1 296.38 146.419 294.809C150.956 291.743 153.904 289.254 156.504 287.065C160.836 283.417 163.96 280.781 171.951 277.745L172.922 277.379C177.877 275.531 186.168 272.437 192.612 264.51C194.483 262.203 200.179 255.201 197.555 248.84C197.031 247.551 195.872 245.574 191.941 243.344C185.403 239.649 178.801 239.542 175.253 239.49C174.887 239.484 174.552 239.478 174.241 239.472C167.209 239.266 161.989 236.536 151.585 231.093L151.509 231.051C144.648 227.456 131.902 219.088 123.635 203.43C117.744 192.274 116.485 176.345 116.238 171.725C116.167 170.424 115.061 169.441 113.761 169.501C112.46 169.571 111.466 170.678 111.536 171.978C111.872 178.204 113.307 193.95 119.475 205.625C128.336 222.413 141.982 231.375 149.326 235.224L149.402 235.264C160.447 241.037 165.99 243.938 174.106 244.179C174.435 244.191 174.788 244.197 175.176 244.203C178.524 244.256 184.126 244.35 189.622 247.451C192.582 249.128 193.047 250.264 193.194 250.635C193.906 252.358 193.747 255.648 188.952 261.544C183.315 268.476 175.777 271.289 171.268 272.972C170.916 273.101 170.586 273.225 170.268 273.348C161.53 276.673 157.97 279.674 153.463 283.47C150.95 285.588 148.102 287.989 143.771 290.913C141.541 292.42 139.152 293.914 136.462 295.473C116.903 306.842 100.026 316.646 81.1724 312.579C78.9951 312.115 75.5768 311.203 71.6691 309.52C64.0728 306.254 58.2117 301.676 54.2632 295.921C52.2746 293.02 51.7092 291.22 50.3443 286.87C49.1321 282.999 47.361 277.362 43.518 267.705C45.5723 270.023 48.0143 272.401 50.8977 274.596C52.2922 275.661 53.7922 276.673 55.3459 277.609C58.5115 279.498 61.8779 281.033 65.6496 282.317C68.9744 283.44 71.9578 284.134 74.3526 284.688L74.5238 284.729C85.5271 287.266 94.6363 286.677 98.0435 286.306C108.33 285.206 116.774 280.975 133.585 272.537C138.252 270.195 141.741 268.247 144.266 266.576C146.372 265.181 147.572 264.146 148.632 263.233C150.438 261.674 151.862 260.444 157.552 257.743L157.781 257.637C160 256.584 162.766 255.272 162.725 252.523C162.684 248.622 157.753 247.534 147.931 245.374C142.653 244.214 136.08 242.767 129.425 240.607C122.199 238.265 119.351 236.559 115.414 234.199C112.484 232.44 109.159 230.451 103.299 227.709C101.927 227.068 100.597 226.462 99.2381 225.873C89.2165 221.478 79.0599 217.976 69.0623 215.476C63.6315 214.116 55.381 212.351 46.89 211.638C30.8194 210.298 20.1047 211.286 15.0199 214.558C11.3898 216.905 9.62975 217.34 5.62852 218.253C8.25282 213.816 16.1146 204.112 26.7423 195.357C43.2358 181.763 60.2363 176.473 70.3921 173.308C77.5895 171.065 85.0275 169.324 92.5061 168.124C93.648 167.959 94.5299 166.982 94.5299 165.794C94.5299 164.493 93.4768 163.44 92.1767 163.44L91.8001 163.469C84.0854 164.705 76.4124 166.5 68.992 168.812C58.5059 172.078 40.9585 177.538 23.7525 191.72C13.1433 200.464 0.456741 214.693 0.00332642 219.93C-0.103088 221.148 0.338287 221.949 0.726929 222.401C2.00948 223.896 3.82777 223.484 6.35213 222.913C10.7485 221.913 13.1609 221.366 17.5859 218.505C19.94 216.988 26.8302 214.681 46.5023 216.323C54.687 217.005 62.6719 218.717 67.9325 220.036C77.6774 222.478 87.5749 225.891 97.367 230.181C98.6903 230.757 99.9793 231.34 101.315 231.969C106.958 234.611 110.171 236.536 113.007 238.237C117.056 240.66 120.251 242.579 127.983 245.08C134.862 247.31 141.553 248.781 146.931 249.964C150.874 250.829 155.239 251.794 157.252 252.642C156.752 252.912 156.169 253.189 155.77 253.383L155.54 253.495C149.279 256.466 147.472 258.025 145.566 259.673C144.566 260.532 143.536 261.427 141.677 262.657C139.31 264.222 135.975 266.075 131.478 268.335C115.173 276.514 106.988 280.622 97.5428 281.634C94.3717 281.981 85.8917 282.528 75.5888 280.151L75.4232 280.11C73.1283 279.574 70.269 278.915 67.1617 277.862C63.7083 276.691 60.6361 275.291 57.7647 273.572C56.3582 272.731 55.0044 271.813 53.7459 270.854C46.6309 265.434 42.3826 258.667 40.0997 255.03C38.4341 252.376 37.1219 250.282 34.8567 251.5C32.3323 252.854 33.4205 255.495 37.0276 264.246L37.6281 265.698C42.4825 277.533 44.5072 283.999 45.8545 288.277C47.237 292.679 47.9967 295.097 50.386 298.581C54.8462 305.083 61.3838 310.214 69.8156 313.839C74.0759 315.669 77.8069 316.664 80.1897 317.176C83.5617 317.905 86.8569 318.241 90.0938 318.241L90.0993 318.246Z" fill="black"/>
<path d="M126.135 391.413C126.429 391.413 126.729 391.401 127.029 391.372C134.255 390.707 138.851 382.298 140.433 377.432C141.869 372.977 141.598 368.87 141.111 361.42C140.74 355.778 140.163 352.059 140.139 351.899C139.969 350.822 139.804 349.91 139.657 349.086C139.275 346.956 139.016 345.544 139.033 343.344C139.051 340.536 139.504 338.365 139.692 337.559C140.286 335.058 141.022 333.916 142.046 332.334C142.864 331.062 143.888 329.486 144.994 326.949C145.811 325.078 146.482 323.148 147.036 321.047C147.859 317.899 148.177 315.228 148.383 313.462C148.501 312.444 148.766 309.614 148.677 305.342C148.584 301.099 148.165 296.762 147.424 292.461C147.207 291.178 145.988 290.319 144.706 290.537C143.423 290.754 142.563 291.973 142.782 293.255C143.481 297.328 143.876 301.429 143.964 305.442C144.047 309.42 143.811 311.997 143.705 312.915C143.516 314.551 143.222 317.022 142.481 319.847C141.987 321.701 141.398 323.412 140.675 325.066C139.722 327.25 138.892 328.538 138.086 329.78C136.956 331.528 135.885 333.181 135.108 336.47C134.878 337.43 134.343 340.019 134.319 343.308C134.302 345.95 134.619 347.704 135.02 349.922C135.161 350.722 135.32 351.6 135.484 352.629C135.484 352.665 136.055 356.312 136.409 361.685C136.891 369.041 137.115 372.383 135.95 375.978C134.626 380.051 131.042 386.27 126.594 386.683C125.305 386.8 124.098 386.429 122.563 385.441C120.591 384.169 118.249 381.939 115.537 379.362C114.519 378.397 113.589 377.437 112.688 376.426C111.647 375.26 110.788 374.189 109.952 373.154C107.887 370.594 105.939 368.17 102.202 365.498C99.7131 363.715 97.0009 362.221 94.1351 361.061C92.9284 360.573 91.558 361.156 91.0694 362.356C90.5808 363.563 91.1573 364.933 92.3639 365.422C94.8883 366.446 97.2776 367.758 99.466 369.329C102.679 371.63 104.274 373.607 106.292 376.108C107.163 377.19 108.063 378.309 109.181 379.556C110.164 380.662 111.188 381.715 112.3 382.775C115.302 385.629 117.672 387.888 120.021 389.4C122.139 390.766 124.104 391.413 126.135 391.413Z" fill="black"/>
<path d="M56.5753 277.95C56.9464 277.95 57.323 277.861 57.6765 277.673C59.9297 276.479 66.8143 271.477 70.004 268.564C72.6986 266.11 79.0243 260.367 81.2433 251.211C83.591 241.555 80.0071 233.411 77.6363 228.026C75.7763 223.801 73.3167 219.842 70.3158 216.246C69.4802 215.245 67.9969 215.116 67.0031 215.946C66.0028 216.782 65.8732 218.265 66.7023 219.259C69.421 222.513 71.6456 226.103 73.3288 229.922C75.5709 235.017 78.6422 241.99 76.6647 250.099C74.7825 257.855 69.2091 262.921 66.8319 265.087C63.9661 267.699 57.4174 272.483 55.4695 273.519C54.3221 274.125 53.8807 275.555 54.4923 276.703C54.9162 277.503 55.7286 277.956 56.5753 277.956V277.95Z" fill="black"/>
<path d="M100.804 255.478C101.981 255.478 102.993 254.6 103.14 253.406C103.223 252.735 103.317 251.988 103.417 251.181C103.905 247.292 104.57 241.967 104.682 238.03C104.764 235.27 104.764 232.487 104.682 229.774C104.647 228.474 103.54 227.462 102.257 227.491C100.957 227.532 99.9385 228.615 99.9746 229.916C100.05 232.54 100.05 235.229 99.9746 237.901C99.8682 241.614 99.2214 246.81 98.7448 250.605C98.6439 251.417 98.5505 252.176 98.4682 252.852C98.3145 254.142 99.2325 255.319 100.522 255.471C100.616 255.483 100.709 255.489 100.804 255.489V255.478Z" fill="black"/>
<path d="M107.351 270.741C108.08 270.741 108.798 270.406 109.257 269.771C111.699 266.399 114.559 263.462 117.76 261.044C119.96 259.372 121.861 257.931 123.667 257.019C125.186 256.254 126.551 255.901 128.099 255.889C128.134 255.889 128.169 255.889 128.204 255.889C131.983 255.889 135.36 257.966 136.637 258.749C138.231 259.738 140.738 263.156 140.668 264.233C140.444 265.516 141.304 266.722 142.586 266.946C143.869 267.169 145.087 266.299 145.31 265.022C146.016 260.961 140.873 255.842 139.149 254.771C137.502 253.759 133.224 251.111 128.057 251.188C125.786 251.205 123.714 251.729 121.549 252.824C119.361 253.929 117.306 255.489 114.924 257.295C111.357 259.996 108.174 263.263 105.455 267.01C104.69 268.064 104.926 269.535 105.979 270.3C106.397 270.6 106.88 270.747 107.356 270.747L107.351 270.741Z" fill="black"/>
<path d="M66.4171 282.445C66.7049 282.445 66.9992 282.392 67.2879 282.28C70.0473 281.18 78.1386 276.455 81.6984 274.225C84.6706 272.365 88.0426 270.259 91.4257 266.663C93.3856 264.58 94.3146 263.103 95.1447 261.797C95.9979 260.449 96.6688 259.384 98.4454 257.813C99.2875 257.078 100.447 256.06 101.982 255.154C102.942 254.588 103.965 254.112 105.025 253.742C109.838 252.064 113.692 252.77 116.082 253.659C117.87 254.324 119.518 255.324 120.977 256.631C121.901 257.519 123.366 257.508 124.273 256.595C125.172 255.69 125.191 254.236 124.319 253.318L124.172 253.171C122.26 251.447 120.095 250.128 117.729 249.245C114.616 248.087 109.62 247.157 103.483 249.293C102.124 249.764 100.817 250.37 99.5929 251.093C97.6746 252.223 96.269 253.458 95.339 254.276C93.0497 256.301 92.091 257.813 91.1666 259.279C90.4199 260.462 89.649 261.686 88.001 263.439C85.0408 266.593 82.075 268.441 79.2157 270.235C75.2496 272.712 67.77 277.026 65.5575 277.909C64.3517 278.391 63.7577 279.756 64.2398 280.963C64.6044 281.886 65.4936 282.445 66.4292 282.445H66.4171Z" fill="black"/>
<path d="M151.438 443.814C153.644 443.814 155.933 443.537 158.275 442.99C161.453 442.255 167.526 440.242 172.498 435.039C177.352 429.961 178.806 424.301 179.866 420.17C180.336 418.329 180.983 415.803 181.595 415.68C183.107 415.368 186.449 419.711 188.062 421.8C192.47 427.49 194.282 432.909 195.483 436.488C196.553 439.688 197.395 442.207 200.013 442.148C202.638 442.071 204.262 439.271 205.815 432.174C206.887 427.272 207.71 421.029 208.069 415.039C208.269 411.761 208.299 408.972 208.322 406.73C208.346 404.647 208.375 402.34 208.587 401.24C210.764 402.417 215.483 408.619 218.114 412.073C221.28 416.227 223.422 419.581 224.981 422.029C227.564 426.077 228.988 428.302 231.636 427.838C234.772 427.284 234.572 423.736 234.337 419.629C234.073 414.992 233.666 407.983 236.179 400.781C239.574 391.054 247.642 382.304 256.733 378.49C264.647 375.172 274.057 375.242 287.079 375.337C289.074 375.354 290.951 375.407 292.605 375.449C298.071 375.601 301.366 375.696 303.308 374.419C304.032 373.954 304.556 373.289 304.815 372.506C305.786 369.729 303.284 367.799 300.119 365.351C297.866 363.609 295.064 361.443 292.163 358.325C286.143 351.846 283.672 345.539 279.577 335.093C277.74 330.409 276.187 325.567 274.958 320.676C274.639 319.417 273.362 318.646 272.097 318.97C270.838 319.288 270.074 320.564 270.391 321.83C271.668 326.908 273.286 331.945 275.193 336.8C279.347 347.403 282.089 354.4 288.715 361.532C291.88 364.939 294.976 367.334 297.242 369.081C297.941 369.623 298.736 370.235 299.353 370.759C297.742 370.894 295.123 370.817 292.74 370.753C291.062 370.705 289.162 370.653 287.12 370.635C273.533 370.535 263.724 370.458 254.915 374.154C244.494 378.526 235.608 388.135 231.736 399.233C228.912 407.319 229.347 414.892 229.636 419.899C229.648 420.135 229.665 420.382 229.676 420.629C229.436 420.258 229.194 419.876 228.953 419.499C227.346 416.98 225.146 413.526 221.862 409.219C215.142 400.393 210.811 395.062 206.716 396.597C203.72 397.721 203.68 401.093 203.62 406.677C203.597 408.866 203.562 411.597 203.373 414.757C202.814 423.912 201.337 431.656 200.096 435.434C200.048 435.287 199.996 435.139 199.948 434.999C198.725 431.35 196.683 425.248 191.787 418.923C188.621 414.821 185.026 410.166 180.647 411.073C177.152 411.791 176.258 415.298 175.305 419.005C174.322 422.836 173.098 427.608 169.096 431.792C164.972 436.111 159.876 437.793 157.21 438.412C153.262 439.335 149.567 439.341 146.212 438.436C137.033 435.94 132.419 427.019 127.959 418.392C125.282 413.214 122.528 407.883 122.133 400.204C121.927 396.162 122.404 392.084 123.563 388.083C123.923 386.835 123.204 385.529 121.957 385.17C120.71 384.81 119.403 385.529 119.044 386.776C117.744 391.278 117.203 395.88 117.438 400.445C117.879 409.137 121.009 415.192 123.769 420.535C128.477 429.644 133.802 439.948 144.983 442.978C147.048 443.543 149.213 443.825 151.45 443.825L151.438 443.814Z" fill="black"/>
<path d="M84.8159 524L86.7924 523.942L371.15 515.88L371.492 514.002C374.011 500.274 374.917 486.258 374.193 472.347C373.804 464.851 373.045 459.69 371.786 451.145L371.057 446.161C368.062 425.666 366.413 414.38 358.281 407.671C358.064 407.489 357.775 407.259 357.434 406.989C355.875 405.742 354.692 404.747 353.786 403.952C354.969 403.964 356.069 403.67 356.693 402.446C357.858 400.18 355.598 398.092 353.18 396.15C350.896 394.314 347.66 392.113 343.817 389.783C335.585 384.787 329.036 381.962 321.457 378.691C319.209 377.72 316.89 376.719 314.354 375.59C310.659 373.948 306.852 372.177 303.039 370.323C301.867 369.759 300.462 370.246 299.896 371.412C299.332 372.583 299.82 373.989 300.986 374.554C304.845 376.426 308.699 378.22 312.442 379.879C315.002 381.021 317.337 382.027 319.592 383.004C327.317 386.341 333.42 388.971 341.382 393.802C344.742 395.838 347.172 397.491 348.885 398.768C348.067 398.928 347.342 399.339 346.854 400.198C345.395 402.776 347.907 405.394 354.486 410.655C354.81 410.914 355.081 411.131 355.286 411.297C362.012 416.84 363.572 427.496 366.396 446.827L367.126 451.816C368.361 460.225 369.115 465.297 369.486 472.571C370.157 485.487 369.386 498.492 367.191 511.261L88.6404 519.158C86.3687 507.512 85.0806 495.814 84.8039 484.357C84.6864 479.478 84.8094 477.584 85.0038 474.713C85.2101 471.641 85.4923 467.44 85.5747 457.371C85.5978 454.347 85.5978 451.628 85.5923 449.145C85.5802 438.806 85.5747 432.562 87.5873 423.989C88.6876 419.299 90.1469 414.662 91.918 410.19C92.401 408.983 91.806 407.613 90.6003 407.136C89.3881 406.653 88.0223 407.247 87.5457 408.454C85.6867 413.138 84.1562 418.005 83.0032 422.912C80.8675 432.015 80.873 438.83 80.885 449.145C80.885 451.622 80.885 454.317 80.8674 457.33C80.7851 467.263 80.5084 471.388 80.3085 474.395C80.1142 477.284 79.9726 479.373 80.0966 484.469C80.3964 496.844 81.8502 509.483 84.4152 522.034L84.8094 523.971L84.8159 524Z" fill="black"/>
<path d="M0.00878906 219.942C0.462219 214.704 13.1488 200.476 23.7589 191.732C40.9529 177.562 58.5123 172.09 69.004 168.824C74.8763 166.994 80.9197 165.493 87.0215 164.328C86.0101 163.21 85.0746 161.951 84.2501 160.527C82.838 158.091 81.8849 155.401 81.3963 152.53C77.5366 150.559 73.8584 147.646 71.6931 142.968C68.9688 137.077 69.2806 129.822 72.5055 124.037C72.7997 123.508 73.1116 123.008 73.441 122.532C73.2291 120.372 73.2698 118.218 73.5882 116.117C74.8763 107.626 80.2433 100.358 89.5403 94.5157C96.0724 90.4145 102.863 88.449 109.706 88.6961C109.847 88.6961 109.983 88.7137 110.124 88.7193C110.201 84.2887 111.131 80.0339 112.913 76.0327C117.544 65.6706 126.077 61.227 128.878 59.7742C135.05 56.5614 141.724 55.1493 148.379 55.5963C147.496 53.2718 146.82 50.8353 146.466 48.3286C143.388 26.4329 159.724 11.8691 161.601 10.2803C165.679 6.82616 176.807 -1.07653 192.076 0.14151C203.374 1.04771 211.007 5.99648 215.42 9.98614C221.269 15.2762 224.37 21.3721 226.006 26.1331C229.254 22.1494 234.679 17.2946 245.389 13.2166C257.681 8.53852 268.462 10.0862 275.599 11.11L276.335 11.2159C283.167 12.1869 301.315 14.7642 315.795 29.605C332.99 47.2228 333.249 69.6598 333.332 77.033C333.484 90.4608 329.194 103.171 326.994 108.779C335.585 113.999 343.782 119.783 351.461 126.062C371.591 142.527 382.242 157.503 389.292 167.411C395.812 176.58 398.213 181.364 399.172 187.089C400.92 197.522 398.472 213.186 385.826 223.002C379.436 227.963 371.668 230.48 362.73 230.48C362.63 230.48 362.524 230.48 362.424 230.48C348.907 230.393 337.321 221.583 330.448 214.87C331.796 220.448 332.502 224.284 332.578 226.944C333.249 250.04 324.834 272.772 307.569 294.515C297.219 307.548 285.597 316.305 275.406 322.384C276.564 326.702 277.953 330.975 279.566 335.1C283.667 345.556 286.139 351.87 292.158 358.343C295.059 361.461 297.86 363.633 300.113 365.369C302.786 367.434 304.974 369.135 305.009 371.3C308.129 372.789 311.206 374.213 314.36 375.619C316.908 376.755 319.239 377.761 321.497 378.738C329.065 382.004 335.603 384.828 343.829 389.813C347.665 392.143 350.902 394.344 353.185 396.179C355.604 398.122 357.864 400.21 356.699 402.476C356.069 403.7 354.963 403.988 353.786 403.982C354.739 404.824 355.945 405.824 357.393 406.983C357.752 407.272 358.058 407.519 358.281 407.701C366.407 414.398 368.061 425.678 371.05 446.15L371.756 450.958C373.033 459.596 373.798 464.809 374.192 472.365C374.916 486.282 374.005 500.298 371.486 514.027L371.144 515.898L86.792 523.959L84.8155 524.018L84.4213 522.082C81.8553 509.525 80.4015 496.879 80.1017 484.51C79.9786 479.415 80.1193 477.331 80.3081 474.442C80.508 471.429 80.7846 467.31 80.867 457.371C80.8901 454.37 80.8901 451.681 80.8846 449.21C80.8726 438.888 80.867 432.063 83.0027 422.954C83.6616 420.153 84.4444 417.369 85.3392 414.621C80.8142 416.875 74.4709 419.247 67.7501 419.247C63.8313 419.247 59.7893 418.441 55.9112 416.334C46.7196 411.338 43.6299 401.729 42.4713 398.11C40.4763 391.902 40.1348 385.182 41.459 378.132C42.5889 372.118 44.6542 367.234 45.7665 364.616C49.4328 355.971 53.6339 351.352 57.3408 347.275C61.3013 342.92 64.7261 339.154 66.8969 331.162C68.5034 325.255 68.5977 320.106 68.4275 313.268C62.272 310.432 55.3643 305.866 50.3794 298.61C47.9911 295.126 47.2258 292.702 45.8433 288.301C44.5016 284.023 42.4713 277.561 37.6225 265.734L37.0164 264.257C33.4149 255.525 32.3323 252.889 34.8511 251.529C37.1163 250.311 38.4285 252.406 40.0941 255.06C42.377 258.696 46.6253 265.469 53.7458 270.889C54.6869 271.607 55.6345 272.26 56.5756 272.866C59.2295 271.165 64.3615 267.352 66.8146 265.122C69.1983 262.957 74.7708 257.878 76.6538 250.135C78.6248 242.032 75.5536 235.053 73.3115 229.957C71.7282 226.362 69.6573 222.972 67.1505 219.871C58.1468 217.664 51.0623 216.741 46.4957 216.358C26.8246 214.716 19.9335 217.023 17.5739 218.547C13.1433 221.406 10.7308 221.954 6.34653 222.949C3.82217 223.519 1.99832 223.937 0.71579 222.443C0.327148 221.989 -0.114288 221.195 -0.00878906 219.971L0.00878906 219.942ZM75.9709 140.985C78.8488 147.216 85.3799 149.452 90.9237 151.123C93.7007 149.464 97.0958 146.645 99.0612 142.132C102.539 134.136 99.5674 125.433 95.0776 120.354C94.0597 119.2 92.9003 118.17 91.6298 117.265C86.5394 118.483 79.9842 120.307 76.6242 126.326C74.1582 130.752 73.9056 136.506 75.9765 140.985H75.9709ZM164.161 154.23C163.143 156.578 161.796 158.738 160.142 160.691C164.961 161.05 168.185 160.568 176.071 159.391C177.595 159.162 179.289 158.908 181.195 158.632C186.986 157.79 191.829 157.149 195.724 156.632C200.65 155.978 204.857 155.425 207.288 154.907C206.652 154.595 205.934 154.254 205.222 153.919C204.039 153.36 202.691 152.724 201.115 151.936C194.571 148.676 191.746 146.663 189.01 144.722C186.563 142.986 184.256 141.338 179.201 138.79C173.464 135.895 168.291 133.882 163.714 132.764C164.755 134.782 165.514 136.913 165.961 139.149C166.95 144.145 166.349 149.222 164.166 154.236L164.161 154.23ZM154.193 160.05C156.663 157.867 158.571 155.284 159.848 152.353C161.636 148.234 162.143 144.098 161.342 140.061C160.748 137.054 159.453 134.271 157.511 131.764C156.576 131.705 155.675 131.694 154.81 131.734C150.197 131.946 147.643 133.035 146.125 133.835C141.146 136.466 138.152 140.102 137.693 144.074C137.422 146.381 137.869 149.993 141.5 154.106C144.895 157.955 149.626 159.362 154.193 160.05ZM133.014 143.527C133.473 139.602 135.545 136.001 138.963 133.029C137.816 131.846 136.628 130.716 135.404 129.651C135.386 129.634 135.368 129.622 135.351 129.604C130.902 125.744 125.959 122.66 120.569 120.419C116.621 118.771 108.106 115.223 97.6316 116.217C97.961 116.553 98.2904 116.882 98.5967 117.235C103.675 122.979 107.971 133.441 103.374 144.009C101.792 147.652 99.485 150.388 97.131 152.424C100.892 152.83 106.905 152.971 116.503 152.041C122.164 151.494 127.889 150.664 133.568 149.611C132.867 147.251 132.82 145.169 133.009 143.527H133.014ZM338.951 216.081C346.948 222.448 354.856 225.703 362.459 225.75C362.553 225.75 362.641 225.75 362.736 225.75C370.597 225.75 377.4 223.566 382.943 219.259C393.947 210.715 396.065 196.998 394.535 187.842C393.811 183.535 392.211 179.61 385.461 170.119C378.559 160.415 368.131 145.745 348.483 129.681C338.015 121.119 326.565 113.487 314.448 106.99C313.301 106.379 312.871 104.949 313.483 103.802C314.095 102.654 315.525 102.224 316.673 102.836C318.768 103.96 320.833 105.125 322.886 106.314C325.029 100.7 328.76 89.1486 328.624 77.0561C328.548 70.1484 328.306 49.129 312.424 32.865C299.06 19.1716 282.672 16.8474 275.67 15.8529L274.929 15.7469C267.873 14.7349 258.211 13.352 247.06 17.5947C233.714 22.6732 229.672 28.7453 227 32.7651C226.988 32.7826 226.971 32.8002 226.959 32.8178C226.882 32.9233 226.8 33.0297 226.706 33.1232C226.659 33.1704 226.606 33.2055 226.553 33.2527C226.488 33.312 226.423 33.3712 226.353 33.4174C226.288 33.4591 226.218 33.4942 226.147 33.5294C226.082 33.5646 226.018 33.6062 225.946 33.6358C225.829 33.683 225.706 33.7182 225.576 33.7469C225.552 33.7533 225.529 33.7654 225.505 33.7709C225.352 33.8005 225.2 33.8181 225.046 33.8181C224.982 33.8181 224.917 33.8061 224.853 33.8005C224.764 33.7941 224.676 33.7885 224.587 33.7709C224.511 33.7533 224.44 33.7293 224.37 33.7062C224.293 33.683 224.217 33.671 224.147 33.6358C224.005 33.5766 223.87 33.5063 223.74 33.4174C223.711 33.3999 223.688 33.3767 223.664 33.3527C223.569 33.2823 223.469 33.212 223.387 33.1232C223.334 33.0704 223.293 33.0057 223.24 32.9529C223.193 32.8937 223.134 32.8354 223.093 32.7706C223.045 32.7003 223.01 32.6235 222.97 32.5467C222.94 32.4884 222.898 32.4292 222.875 32.3644C222.822 32.2413 222.787 32.1173 222.758 31.9878C222.758 31.9646 222.74 31.9471 222.74 31.923C221.905 27.8043 219.427 19.9249 212.26 13.4461C208.388 9.94487 201.679 5.6022 191.699 4.80195C178.177 3.7192 168.274 10.7629 164.643 13.8404C163.978 14.4053 148.349 27.9162 151.126 47.6466C152.697 58.8322 161.919 68.8483 165.455 72.3257C169.568 69.4719 173.999 67.1882 178.713 65.5114C187.209 62.4865 194.395 62.3042 199.149 62.1811C206.528 61.9923 215.708 61.7573 225.223 66.1231C235.991 71.0663 241.847 79.4694 245.347 84.4941C250.061 91.2612 252.515 97.4518 254.486 102.425C257.217 109.315 258.711 112.687 262.76 113.952C264.066 114.364 264.719 114.276 266.025 114.093C267.15 113.94 268.556 113.752 270.68 113.846C284.673 114.463 294.683 125.732 299.496 131.146C305.987 138.449 312.265 147.805 323.44 188.543C325.193 194.939 326.694 200.399 327.935 205.066C329.154 206.625 333.108 211.426 338.945 216.07L338.951 216.081ZM303.892 291.567C320.444 270.718 328.518 249.011 327.882 227.056C327.782 223.537 326.341 217.317 323.522 206.743C323.522 206.737 323.522 206.726 323.517 206.719C322.257 201.994 320.727 196.404 318.908 189.795C308.005 150.04 302.073 141.132 295.983 134.283C291.599 129.351 282.478 119.088 270.474 118.559C268.768 118.482 267.696 118.629 266.655 118.771C265.114 118.983 263.66 119.177 261.353 118.454C254.98 116.459 252.827 111.033 250.108 104.166C248.225 99.4228 245.889 93.5154 241.481 87.1952C238.051 82.2705 232.861 74.8205 223.257 70.413C214.737 66.4997 206.517 66.7116 199.267 66.9004C194.547 67.0234 188.075 67.1882 180.29 69.9596C175.4 71.702 170.839 74.1551 166.655 77.2745C166.638 77.2856 166.626 77.2976 166.608 77.3097C164.437 78.9337 162.366 80.7344 160.407 82.7119C159.494 83.6354 158 83.6409 157.076 82.7294C156.152 81.817 156.146 80.3226 157.058 79.3982C158.535 77.9102 160.065 76.5148 161.654 75.2091C158.918 72.4728 154.163 67.1946 150.644 60.5571C145.837 59.827 138.763 59.9214 131.055 63.9346C128.613 65.2051 121.175 69.0777 117.215 77.9389C115.62 81.5052 114.82 85.3241 114.82 89.3078C120.151 90.4376 124.718 92.9444 130.16 95.9398C135.127 98.676 139.829 101.936 144.124 105.637C145.107 106.484 145.219 107.973 144.371 108.956C143.524 109.938 142.036 110.05 141.053 109.203C137.004 105.72 132.579 102.642 127.895 100.065C120.839 96.1868 116.185 93.6208 109.547 93.3858C100.674 93.074 94.1828 97.1455 92.0526 98.4873C83.9678 103.566 79.3254 109.733 78.2483 116.812C78.2011 117.112 78.1779 117.418 78.1427 117.723C82.267 114.735 87.1039 113.498 90.8413 112.604C91.2355 112.381 91.688 112.281 92.1414 112.31C106.099 109.285 117.898 114.193 122.388 116.064C127.036 118.006 131.385 120.512 135.398 123.561C135.786 122.196 136.28 120.866 136.88 119.589C141.664 109.474 151.674 105.831 154.964 104.637C161.43 102.283 167.291 102.241 171.068 102.625C186.762 104.201 197.979 115.835 206.987 125.179C208.376 126.621 209.735 128.11 211.03 129.604C211.877 130.587 211.771 132.076 210.788 132.923C210.341 133.305 209.794 133.494 209.253 133.494C208.593 133.494 207.934 133.218 207.47 132.676C206.234 131.246 204.934 129.822 203.604 128.439C194.683 119.189 184.58 108.709 170.598 107.302C167.309 106.973 162.207 107.008 156.576 109.056C153.44 110.198 145.095 113.228 141.141 121.595C140.347 123.266 139.793 125.062 139.457 126.933C140.622 127.992 141.752 129.098 142.854 130.257C143.206 130.051 143.565 129.851 143.936 129.657C146.984 128.05 150.374 127.209 154.598 127.015C155.94 126.957 157.346 126.992 158.811 127.132C158.906 127.132 158.994 127.15 159.088 127.162C165.396 127.81 172.852 130.287 181.32 134.565C186.692 137.277 189.257 139.102 191.735 140.861C194.324 142.697 197.001 144.604 203.215 147.698C204.751 148.464 206.069 149.087 207.234 149.641C211.518 151.671 213.878 152.783 213.637 155.495C213.377 158.379 210 159.109 208.182 159.503C205.652 160.05 201.95 160.539 196.343 161.28C192.464 161.792 187.64 162.434 181.878 163.269C179.983 163.545 178.295 163.799 176.777 164.028C170.498 164.969 166.938 165.499 163.136 165.499C161.789 165.499 160.412 165.435 158.876 165.293C152.562 164.722 143.919 163.934 137.975 157.202C137.022 156.119 136.239 155.054 135.591 154.013C129.402 155.201 123.146 156.114 116.962 156.708C111.601 157.226 107.282 157.431 103.769 157.431C97.031 157.431 93.2593 156.685 90.8053 155.978C90.6174 155.949 90.4286 155.89 90.2528 155.814C89.1813 155.49 88.0163 155.143 86.7985 154.731C87.1982 155.925 87.71 157.067 88.3281 158.144C92.6948 165.687 101.186 167.67 105.269 168.623C110.241 169.783 118.121 170.331 127.436 166.323C128.589 165.829 130.908 164.034 132.443 162.846C133.426 162.086 134.139 161.533 134.645 161.215C134.65 161.215 134.662 161.204 134.668 161.197C134.715 161.168 134.768 161.15 134.815 161.127C134.903 161.08 134.985 161.033 135.08 160.998C135.08 160.998 135.08 160.998 135.086 160.998C135.38 160.886 135.692 160.838 135.998 160.85C136.039 160.85 136.08 160.862 136.122 160.868C136.234 160.88 136.339 160.886 136.451 160.915C136.504 160.927 136.551 160.95 136.604 160.968C136.698 160.998 136.786 161.021 136.875 161.062C136.922 161.08 136.957 161.115 137.004 161.133C137.092 161.18 137.187 161.227 137.269 161.286C137.392 161.374 137.511 161.474 137.616 161.586C137.616 161.586 137.622 161.598 137.628 161.604C137.728 161.709 137.822 161.828 137.898 161.957C137.94 162.027 137.97 162.098 138.005 162.175C138.033 162.239 138.075 162.304 138.105 162.369V162.38C139.929 167.223 143.635 174.078 150.938 179.274C161.348 186.683 172.552 185.871 176.765 185.565C190.87 184.547 200.703 176.962 205.305 172.537C206.24 171.636 207.729 171.666 208.635 172.601C209.535 173.537 209.506 175.026 208.57 175.932C203.509 180.798 192.688 189.137 177.106 190.266C175.929 190.349 174.27 190.473 172.252 190.473C170.357 190.473 168.144 190.366 165.732 190.025C166.456 190.396 167.144 190.737 167.762 191.02C174.081 193.891 178.872 195.262 189.381 198.263C193.682 199.493 213.808 205.242 214.637 205.477C215.884 205.836 216.609 207.137 216.255 208.39C215.961 209.426 215.02 210.097 213.996 210.097C213.784 210.097 213.566 210.068 213.349 210.003C212.519 209.767 192.394 204.018 188.081 202.783C177.353 199.717 172.464 198.323 165.82 195.304C160.265 192.779 149.238 186.095 143.201 178.869C139.228 174.903 136.604 170.601 134.897 166.887C133.049 168.318 130.867 169.972 129.283 170.648C124.629 172.649 120.28 173.637 116.385 174.002C116.88 180.328 118.497 193.686 123.628 203.401C131.902 219.071 144.642 227.432 151.503 231.022C162.272 236.659 167.191 239.231 174.241 239.442C174.552 239.454 174.894 239.46 175.258 239.466C178.801 239.525 185.403 239.637 191.929 243.326C195.848 245.539 197.007 247.522 197.543 248.823C200.162 255.184 194.465 262.186 192.594 264.486C186.156 272.407 177.865 275.502 172.911 277.349C172.569 277.479 172.24 277.597 171.934 277.715C163.943 280.751 160.818 283.387 156.488 287.036C154.169 288.99 151.497 291.243 147.626 293.938C148.214 297.751 148.567 301.57 148.649 305.313C148.738 309.379 148.502 312.145 148.355 313.433C148.19 314.893 147.937 317.041 147.361 319.594C147.543 319.67 147.726 319.765 147.89 319.888C159.065 328.421 177.424 338.865 201.45 340.178C224.182 341.419 241.087 333.758 254.675 327.603C259.229 325.537 264.943 322.948 271.216 319.353C271.363 319.241 271.527 319.147 271.704 319.07C281.861 313.192 293.43 304.683 303.868 291.531L303.892 291.567ZM297.242 369.076C294.977 367.328 291.881 364.933 288.716 361.526C282.09 354.394 279.348 347.392 275.194 336.794C273.663 332.887 272.328 328.856 271.192 324.778C265.566 327.874 260.535 330.157 256.639 331.922C243.629 337.818 227.671 345.05 206.417 345.05C204.716 345.05 202.986 345.003 201.22 344.908C176.671 343.567 157.793 333.163 146.013 324.372C145.713 325.213 145.383 326.073 144.995 326.949C143.889 329.486 142.865 331.062 142.047 332.334C140.988 333.975 140.288 335.058 139.693 337.553C139.499 338.365 139.052 340.555 139.035 343.344C139.016 345.532 139.27 346.939 139.658 349.063C139.811 349.899 139.976 350.817 140.146 351.9C140.17 352.052 140.752 355.771 141.118 361.379C141.612 368.852 141.882 372.965 140.44 377.426C138.869 382.293 134.274 390.707 127.042 391.372C126.736 391.401 126.429 391.413 126.135 391.413C125.005 391.413 123.935 391.208 122.887 390.836C122.234 393.937 121.981 397.074 122.14 400.198C122.528 407.872 125.289 413.209 127.954 418.369C132.415 427.008 137.033 435.941 146.219 438.436C149.556 439.342 153.256 439.336 157.217 438.412C159.888 437.794 164.979 436.106 169.109 431.792C173.116 427.603 174.335 422.836 175.318 419.005C176.265 415.298 177.165 411.797 180.661 411.073C185.033 410.173 188.628 414.822 191.806 418.923C196.69 425.236 198.737 431.339 199.955 434.987C200.002 435.134 200.055 435.288 200.109 435.44C201.35 431.662 202.827 423.919 203.386 414.757C203.58 411.597 203.609 408.873 203.633 406.678C203.698 401.093 203.739 397.721 206.729 396.598C211.03 394.979 215.579 400.952 221.88 409.22C225.165 413.533 227.365 416.98 228.971 419.506C229.213 419.882 229.454 420.265 229.695 420.635C229.683 420.388 229.665 420.141 229.654 419.905C229.366 414.897 228.93 407.331 231.755 399.245C235.632 388.147 244.512 378.538 254.928 374.166C263.737 370.47 273.552 370.541 287.133 370.642C289.192 370.659 291.111 370.712 292.799 370.759C295.171 370.824 297.772 370.9 299.372 370.771C298.755 370.247 297.96 369.629 297.26 369.088L297.242 369.076ZM84.809 484.375C85.0857 495.832 86.3747 507.53 88.6464 519.181L367.196 511.284C369.396 498.515 370.168 485.511 369.497 472.594C369.114 465.263 368.355 460.131 367.102 451.628L366.395 446.815C363.571 427.503 362.018 416.863 355.292 411.32C355.08 411.143 354.792 410.914 354.457 410.644C347.907 405.394 345.406 402.787 346.871 400.222C347.36 399.363 348.077 398.957 348.895 398.793C347.183 397.516 344.753 395.862 341.393 393.825C333.443 389.006 327.353 386.376 319.638 383.046C317.367 382.063 315.025 381.051 312.447 379.909C308.905 378.332 305.457 376.731 301.944 375.043C299.843 375.661 296.73 375.578 292.652 375.461C290.988 375.414 289.098 375.361 287.085 375.342C274.064 375.249 264.655 375.178 256.734 378.502C247.649 382.316 239.581 391.066 236.18 400.793C233.668 407.995 234.067 414.997 234.332 419.634C234.567 423.742 234.773 427.291 231.631 427.843C228.983 428.309 227.559 426.084 224.981 422.036C223.422 419.582 221.281 416.228 218.114 412.073C215.484 408.619 210.76 402.423 208.588 401.24C208.376 402.34 208.346 404.653 208.323 406.73C208.299 408.972 208.264 411.762 208.064 415.039C207.699 421.03 206.881 427.279 205.811 432.175C204.263 439.271 202.639 442.072 200.014 442.148C197.384 442.225 196.548 439.689 195.472 436.482C194.271 432.898 192.459 427.491 188.057 421.801C186.445 419.717 183.091 415.381 181.591 415.68C180.978 415.804 180.331 418.329 179.86 420.17C178.801 424.301 177.348 429.968 172.493 435.046C167.521 440.242 161.448 442.26 158.27 443.001C155.922 443.549 153.633 443.819 151.427 443.819C149.22 443.819 147.031 443.537 144.972 442.978C133.792 439.936 128.46 429.626 123.758 420.529C120.999 415.186 117.868 409.125 117.427 400.434C117.22 396.403 117.621 392.361 118.604 388.395C116.679 386.93 114.655 385.005 112.301 382.775C112.077 382.563 111.877 382.363 111.665 382.157C109.966 385.911 108.182 389.601 106.34 393.149C104.122 397.427 103.069 399.133 101.997 400.64C100.939 402.123 97.3142 406.865 91.6769 410.867C90.0168 415.145 88.6399 419.564 87.5924 424.019C85.5798 432.599 85.5863 438.847 85.5983 449.198C85.5983 451.681 85.5983 454.382 85.5798 457.401C85.4974 467.475 85.2152 471.676 85.0098 474.748C84.821 477.614 84.6915 479.508 84.809 484.387V484.375ZM71.4515 332.381C68.9799 341.466 65.0203 345.815 60.8359 350.423C57.2113 354.406 53.4691 358.525 50.1147 366.434C47.9263 371.595 42.8008 383.687 46.9667 396.65C47.9726 399.774 50.6385 408.078 58.1764 412.179C61.7834 414.139 71.817 417.681 87.1039 408.26C93.2065 404.5 97.1254 399.38 98.1785 397.898C98.9382 396.833 99.8737 395.421 102.18 390.978C104.275 386.935 106.293 382.71 108.194 378.403C107.505 377.597 106.893 376.831 106.311 376.108C104.292 373.601 102.698 371.624 99.485 369.323C97.3022 367.758 94.9129 366.446 92.383 365.416C91.1763 364.928 90.5998 363.551 91.0884 362.35C91.5761 361.144 92.9474 360.567 94.1541 361.056C97.0199 362.221 99.7377 363.715 102.221 365.492C105.958 368.164 107.906 370.588 109.971 373.148C111.483 375.031 113.054 376.973 115.556 379.35C120.957 384.488 123.688 386.941 126.612 386.676C131.066 386.264 134.645 380.051 135.962 375.973C137.127 372.371 136.904 369.023 136.421 361.68C136.069 356.307 135.503 352.658 135.498 352.623C135.333 351.581 135.174 350.693 135.027 349.892C134.627 347.68 134.315 345.933 134.333 343.309C134.356 340.148 134.838 337.665 135.121 336.465C135.898 333.182 136.968 331.528 138.098 329.774C138.899 328.533 139.734 327.243 140.687 325.061C142.9 320 143.424 315.393 143.712 312.921C143.847 311.75 144.059 309.226 143.977 305.442C143.919 302.612 143.689 299.728 143.318 296.839C141.953 297.698 140.475 298.598 138.846 299.546C121.787 309.461 106.676 318.246 90.1057 318.246C86.8688 318.246 83.5792 317.911 80.2017 317.181C78.4833 316.811 76.0237 316.181 73.194 315.175C73.2874 321.318 73.0468 326.532 71.458 332.375L71.4515 332.381ZM77.6366 228.026C80.0073 233.417 83.5912 241.561 81.2436 251.211C79.0191 260.355 72.6989 266.111 69.9987 268.571C67.8686 270.512 64.1135 273.366 61.1773 275.414C62.9373 276.273 64.6557 276.967 66.3149 277.561C69.1511 276.22 75.6239 272.477 79.2134 270.23C82.0792 268.435 85.0449 266.581 87.9931 263.44C89.6402 261.686 90.4111 260.462 91.1588 259.279C92.0822 257.813 93.0418 256.296 95.3302 254.277C96.0724 253.624 97.143 252.682 98.5902 251.724C98.6319 251.393 98.6726 251.058 98.7198 250.705C99.2028 246.88 99.8617 241.637 99.9672 237.889C100.032 235.718 100.026 233.529 99.9857 231.351C99.1612 230.975 98.2969 230.587 97.3725 230.181C88.9638 226.491 81.214 223.773 74.3174 221.754C75.5768 223.766 76.689 225.861 77.6421 228.021L77.6366 228.026ZM145.578 259.673C147.484 258.025 149.29 256.466 155.552 253.495L155.752 253.4C156.157 253.206 156.752 252.929 157.258 252.647C155.246 251.8 150.874 250.834 146.925 249.97C141.552 248.787 134.862 247.316 127.989 245.085C120.257 242.579 117.062 240.667 113.014 238.242C110.777 236.9 108.335 235.441 104.728 233.628C104.728 235.1 104.716 236.571 104.675 238.03C104.581 241.349 104.092 245.633 103.651 249.246C109.718 247.187 114.655 248.105 117.739 249.246C119.622 249.946 121.381 250.934 122.987 252.176C124.546 251.558 126.194 251.193 128.06 251.176C133.268 251.129 137.534 253.771 139.146 254.765C140.288 255.471 142.912 257.937 144.359 260.703C144.807 260.338 145.201 260.003 145.583 259.667L145.578 259.673ZM136.656 258.773C135.38 257.978 131.996 255.89 128.189 255.89C128.16 255.89 128.125 255.89 128.09 255.89C126.536 255.902 125.177 256.278 123.793 256.948C123.7 257.002 123.605 257.055 123.505 257.095C121.787 257.985 120.01 259.326 117.744 261.038C114.538 263.468 111.677 266.405 109.248 269.765C108.789 270.4 108.07 270.736 107.34 270.736C106.864 270.736 106.382 270.589 105.963 270.289C104.91 269.524 104.675 268.052 105.44 266.999C108.147 263.256 111.336 259.991 114.908 257.279C116.115 256.366 117.25 255.507 118.362 254.736C117.632 254.313 116.873 253.942 116.085 253.648C113.702 252.759 109.842 252.053 105.022 253.73C101.785 254.854 99.6914 256.701 98.4431 257.801C96.6609 259.373 95.99 260.438 95.1368 261.786C94.3123 263.092 93.3768 264.569 91.4234 266.652C88.0579 270.242 84.8275 272.26 81.7025 274.213C79.6196 275.514 75.983 277.673 72.7701 279.462C73.7704 279.709 74.7236 279.933 75.5999 280.133C85.8565 282.499 94.3716 281.963 97.5548 281.616C107 280.604 115.185 276.496 131.49 268.312C135.651 266.229 138.452 264.663 140.458 263.416C139.841 261.968 137.94 259.537 136.656 258.749V258.773ZM15.0439 214.557C20.1223 211.279 30.8434 210.298 46.914 211.633C56.0814 212.398 75.0761 215.264 99.2611 225.873C107.723 229.58 111.995 232.146 115.432 234.199C119.375 236.559 122.216 238.265 129.442 240.607C136.098 242.767 142.665 244.209 147.943 245.368C157.77 247.528 162.707 248.616 162.749 252.523C162.777 255.271 160 256.59 157.77 257.649L157.57 257.743C151.886 260.444 150.462 261.674 148.655 263.233C147.561 264.174 146.396 265.181 144.348 266.54C144.341 266.54 144.336 266.552 144.324 266.552C142.111 268.017 138.881 269.888 133.603 272.537C116.785 280.975 108.347 285.211 98.0554 286.311C93.8062 286.77 85.0977 287.171 74.5413 284.735C72.1937 284.193 69.1687 283.493 65.8032 282.357C65.744 282.34 65.6792 282.322 65.62 282.298C62.4608 281.228 59 279.763 55.4994 277.685C55.3994 277.633 55.2995 277.573 55.2051 277.509C53.7755 276.65 52.3393 275.69 50.9096 274.608C48.0198 272.413 45.5843 270.035 43.53 267.717C47.373 277.367 49.1385 282.999 50.3507 286.87C51.7156 291.225 52.2801 293.026 54.2751 295.927C62.396 307.755 76.924 311.668 81.1844 312.586C100.044 316.652 116.926 306.842 136.469 295.48C145.342 290.325 149.85 286.523 153.468 283.47C157.976 279.668 161.536 276.667 170.274 273.348C170.592 273.231 170.928 273.101 171.275 272.972C175.782 271.289 183.32 268.476 188.952 261.544C193.747 255.648 193.906 252.365 193.2 250.64C193.047 250.264 192.571 249.123 189.623 247.451C184.133 244.35 178.536 244.256 175.188 244.203C174.799 244.197 174.435 244.191 174.105 244.179C165.973 243.938 160.412 241.026 149.326 235.229C141.982 231.387 128.337 222.431 119.469 205.631C113.943 195.162 112.219 181.404 111.677 174.19C108.794 174.114 106.264 173.719 104.187 173.237C101.438 172.596 96.3666 171.407 91.6473 168.283C84.4444 169.477 77.3007 171.166 70.3985 173.32C60.2363 176.485 43.2301 181.781 26.7477 195.368C16.1266 204.125 8.27124 213.822 5.64047 218.258C9.64169 217.347 11.3953 216.911 15.0319 214.563L15.0439 214.557Z" fill="#262626"/>
</g>
<g filter="url(#filter0_f_58_37)">
<rect x="47.9971" y="493" width="386" height="44" fill="#FFF7BD"/>
</g>
<defs>
<filter id="filter0_f_58_37" x="26.9971" y="472" width="428" height="86" filterUnits="userSpaceOnUse" color-interpolation-filters="sRGB">
<feFlood flood-opacity="0" result="BackgroundImageFix"/>
<feBlend mode="normal" in="SourceGraphic" in2="BackgroundImageFix" result="shape"/>
<feGaussianBlur stdDeviation="10.5" result="effect1_foregroundBlur_58_37"/>
</filter>
</defs>
</svg>
