<svg width="198" height="143" viewBox="0 0 198 143" fill="none" xmlns="http://www.w3.org/2000/svg">
<mask id="mask0_58_82" style="mask-type:luminance" maskUnits="userSpaceOnUse" x="0" y="22" width="198" height="121">
<path d="M197.766 22.8192H0V143H197.766V22.8192Z" fill="white"/>
</mask>
<g mask="url(#mask0_58_82)">
<path d="M99.7364 83.8769C83.7015 78.0858 63.5859 75.795 44.6691 77.5991L52.3892 80.4193C37.8127 82.3863 24.6614 87.378 16.1959 94.1843C19.8136 93.6549 23.4198 93.1151 27.0365 92.5857C11.8558 97.9013 1.57679 107.204 0 117.037C2.47267 116.312 4.95576 115.599 7.42843 114.876C8.93987 122.374 15.7641 129.516 26.1511 134.475C26.1511 132.801 27.2316 131.137 29.1531 129.851C35.394 133.211 38.342 138.311 36.7435 143.022C45.5868 141.282 54.0844 139.013 62.0204 136.259C63.619 138.214 63.7269 140.526 62.3443 142.525C79.4692 141.963 96.3888 139.608 111.915 135.61C112.24 137.544 111.549 139.521 109.961 141.25C123.296 138.83 136.08 135.512 147.946 131.397C148.216 133.881 148.498 136.366 148.768 138.862C158.615 135.07 166.702 129.927 172.068 124.016C176.517 125.183 179.616 127.766 179.788 130.467C182.261 125.81 182.131 120.743 179.443 116.118C184.205 115.956 189.041 117.317 191.59 119.522C191.094 113.731 185.965 108.112 177.813 104.417C180.685 103.963 183.568 103.52 186.44 103.066C181.959 100.376 176.204 98.3332 169.909 97.1778C177.208 92.9636 187.238 90.2087 197.766 89.5278C178.007 82.8399 152.6 81.4459 130.811 85.8325C134.159 84.2008 137.506 82.569 140.852 80.9487C131.643 80.0736 121.849 81.176 114.01 83.9849C114.226 82.3967 110.739 81.2839 107.877 81.5756C105.016 81.8673 102.792 83.0558 100.751 84.1903" fill="#8F4829"/>
<path d="M100.49 35.623C84.9741 25.4122 65.5279 21.3609 47.2362 24.5372L54.6978 29.5071C40.5957 32.9751 27.8876 41.8032 19.7034 53.7963C23.2017 52.8559 26.6887 51.9051 30.187 50.9657C15.5138 60.3544 5.5692 76.7777 4.04639 94.1299C6.44424 92.8553 8.84113 91.591 11.2267 90.3163C12.6955 103.563 19.2925 116.172 29.3233 124.923C29.3233 121.974 30.3707 119.035 32.2278 116.755C38.2641 122.676 41.1147 131.688 39.5701 140.007C48.1217 136.95 56.339 132.93 64.0051 128.068C65.5488 131.525 65.6567 135.599 64.3186 139.132C80.881 138.148 97.2399 133.978 112.259 126.922C112.572 130.326 111.903 133.827 110.369 136.884C123.261 132.617 135.624 126.761 147.102 119.489L147.902 132.659C157.425 125.972 165.242 116.875 170.435 106.458C174.744 108.522 177.723 113.082 177.897 117.858C180.283 109.636 180.164 100.689 177.561 92.5314C182.173 92.2501 186.848 94.6385 189.309 98.5497C188.823 88.3285 183.868 78.399 175.986 71.8835C178.771 71.0946 181.547 70.2953 184.332 69.5064C179.992 64.7628 174.441 61.1547 168.341 59.112C175.392 51.6788 185.099 46.8168 195.27 45.6169C176.169 33.818 151.594 31.3444 130.528 39.091C133.767 36.2168 136.996 33.3426 140.235 30.4579C131.327 28.9133 121.858 30.869 114.278 35.8171C114.483 33.0083 111.115 31.0413 108.35 31.5603C105.586 32.0783 103.437 34.175 101.462 36.1846" fill="#FFDD71"/>
<path d="M101.961 35.0822C85.9912 24.6337 66.2969 20.7017 47.5194 23.8998C47.3366 23.932 45.1017 24.6337 45.7703 25.0769L53.2319 30.0469L54.5596 28.9559C39.8646 32.6294 26.756 41.5541 18.1617 54.0557C17.7517 54.6495 19.803 54.3474 19.8569 54.3361C23.3552 53.3966 26.8431 52.4458 30.3414 51.5054L28.9909 50.8785C17.4269 58.3344 8.7029 69.9382 4.70837 83.1094C3.57384 86.8369 2.8503 90.6723 2.49422 94.5513C2.42983 95.2218 4.7728 94.4973 4.9783 94.3894C7.37521 93.1147 9.7721 91.8504 12.1586 90.5757L9.67457 90.7376C11.2078 104.081 17.7839 116.604 27.8687 125.464C28.4303 125.961 30.8916 125.345 30.903 124.491C30.957 121.639 31.8955 118.894 33.6664 116.647L30.7732 117.285C36.7224 123.217 39.4972 131.968 38.0398 140.255C37.8996 141.066 39.8324 140.515 40.145 140.407C48.9343 137.241 57.3343 133.124 65.2382 128.143L62.4634 128.478C63.954 131.979 64.0828 135.804 62.7873 139.38C62.6253 139.824 63.4568 139.812 63.6727 139.802C80.8081 138.743 97.6414 134.443 113.19 127.171L110.707 127.333C110.976 130.747 110.329 134.053 108.828 137.133C108.472 137.868 110.761 137.339 110.933 137.285C124.063 132.919 136.621 126.955 148.325 119.564L145.55 119.899C145.82 124.286 146.079 128.684 146.349 133.07C146.392 133.848 148.833 132.941 149.124 132.735C158.788 125.896 166.68 116.777 171.993 106.188L168.981 106.999C173.289 109.149 176.096 113.46 176.355 118.268C176.399 118.992 179.281 118.225 179.465 117.588C181.83 109.246 181.732 100.386 179.152 92.1099L176.927 93.2122C181.246 93.0171 185.425 95.3942 187.779 98.9711C188.233 99.6624 190.953 99.0033 190.91 98.1282C190.36 87.7877 185.425 77.9775 177.489 71.3322L176.161 72.4232C178.946 71.6344 181.722 70.8351 184.507 70.0462C184.745 69.9818 186.321 69.4846 185.836 68.9552C181.387 64.1576 175.837 60.5817 169.66 58.4745L169.812 59.0144C176.528 52.0026 185.404 47.4323 195.045 46.2438C195.229 46.222 197.464 45.4767 196.795 45.0657C181.398 35.6229 162.794 32.154 144.977 34.8445C139.881 35.6116 134.86 36.908 130.023 38.6799L131.999 39.0048C135.238 36.1305 138.467 33.2563 141.706 30.3717C141.933 30.1766 141.868 29.8745 141.555 29.8309C131.729 28.1992 121.493 30.3499 113.115 35.7309L115.89 35.3956C115.965 32.154 112.348 30.6094 109.562 30.8149C105.675 31.0952 102.695 33.6124 100.082 36.2707C99.5743 36.7783 100.524 36.8654 100.838 36.854C101.507 36.8323 102.435 36.5841 102.922 36.087C104.379 34.6068 106.614 31.8737 108.947 32.1975C111.009 32.4788 112.812 34.0774 112.758 36.2385C112.736 37.0056 115.263 36.0765 115.533 35.9032C122.487 31.4305 130.854 29.7448 138.996 31.0952L138.844 30.5554C135.606 33.4296 132.377 36.3029 129.137 39.1885C128.285 39.9556 130.908 39.5881 131.114 39.5123C147.018 33.7213 164.835 34.0774 180.695 39.8258C185.284 41.4897 189.68 43.6177 193.836 46.168L195.585 44.9899C184.777 46.3195 174.498 51.3331 166.95 59.2094C166.724 59.4471 166.8 59.6526 167.102 59.7492C173.148 61.8128 178.558 65.3679 182.898 70.0575L184.227 68.9656C181.441 69.7545 178.666 70.5538 175.88 71.3427C175.718 71.3862 174.002 71.9696 174.552 72.4346C182.412 79.0145 187.239 88.7281 187.779 98.9711L190.91 98.1282C188.113 93.8496 183.319 91.6231 178.266 91.8504C177.899 91.8722 175.815 92.2501 176.042 92.9528C178.601 101.131 178.73 109.872 176.399 118.117L179.508 117.436C179.249 112.552 176.323 108.09 171.949 105.907C171.194 105.529 169.337 105.907 168.937 106.718C163.776 117.004 156.142 125.928 146.748 132.573L149.523 132.238L148.725 119.068C148.681 118.279 146.241 119.218 145.949 119.402C134.656 126.533 122.541 132.249 109.865 136.474L111.97 136.626C113.514 133.46 114.151 130.013 113.881 126.512C113.827 125.799 111.668 126.555 111.398 126.674C96.8317 133.481 81.078 137.467 65.044 138.462L65.9295 138.883C67.2572 135.22 67.171 131.245 65.6378 127.657C65.3035 126.868 63.3167 127.711 62.8631 127.993C55.3806 132.713 47.4115 136.604 39.0758 139.607L41.182 139.758C42.6934 131.212 39.9073 122.352 33.764 116.215C33.2241 115.675 31.2808 116.334 30.8698 116.853C28.9265 119.326 27.8792 122.201 27.8252 125.356L30.8594 124.383C20.839 115.577 14.3718 103.163 12.849 89.9052C12.7628 89.2035 10.6462 89.927 10.3659 90.0672C7.96896 91.3428 5.57208 92.6071 3.18559 93.8818L5.66869 93.7198C7.23411 76.5399 16.9524 60.4084 31.4532 51.0622C32.6521 50.2951 30.5356 50.3169 30.1037 50.4362C26.6054 51.3757 23.1175 52.3265 19.6192 53.2669L21.3144 53.5472C29.24 42.0077 41.3003 33.4505 54.9052 30.0582C55.0132 30.026 56.8277 29.3669 56.233 28.9673C53.7499 27.3138 51.2554 25.6498 48.7723 23.9963L47.0232 25.1745C64.9901 22.1165 83.8528 26.2114 99.078 36.1845C99.6179 36.5406 100.557 36.2489 101.108 36.0444C101.291 35.979 102.522 35.4174 102.025 35.0822H101.961Z" fill="#C57F58"/>
<path d="M93.7237 50.9654C82.4948 42.6998 67.6588 39.5226 54.0331 42.483C57.7037 42.4943 61.3639 43.7255 64.3006 45.9405C52.0784 46.1025 40.0172 51.7107 32.0271 60.9707C35.2233 59.5653 38.8409 59.0899 42.2852 59.6411C35.5585 64.2872 30.5052 71.3217 28.2703 79.1867C32.0063 73.6551 38.1818 69.8519 44.8005 68.9872C41.0541 74.6495 38.8078 81.2938 38.3333 88.0688C44.2607 83.8223 51.711 81.7474 58.9775 82.3204C57.7141 85.9295 57.1961 89.7971 57.4773 93.6117C66.8813 86.7287 80.7021 86.6426 90.1931 93.4062C102.341 87.2799 119.034 93.2329 124.562 105.669C125.501 101.272 125.253 96.6365 123.849 92.3578C129.355 91.8606 135.046 94.2917 138.49 98.6139C139.128 94.6383 137.519 90.3805 134.43 87.7979C143.425 85.0326 153.564 86.2533 161.64 91.0718C158.746 80.808 147.69 73.5576 137.129 74.9952C141.892 69.9703 148.435 66.6756 155.313 65.8432C148.046 63.6934 140.272 63.2928 132.821 64.6982C139.214 55.2005 149.774 48.6424 161.111 47.1291C147.614 41.6515 130.889 45.4651 121.095 56.2489C120.61 53.6228 121.031 50.8461 122.273 48.4909C116.841 48.7722 111.54 51.0081 107.556 54.7147C107.976 53.2553 108.409 51.8083 108.83 50.3489C103.938 49.8631 98.8745 51.527 95.2247 54.8227C94.4803 52.4343 92.4935 50.4569 90.0966 49.7438" fill="#E8BD54"/>
<path d="M28.1275 67.1616C24.5213 69.0736 22.3185 72.4885 20.8393 76.1942C18.9935 80.8081 17.8164 85.7459 16.8873 90.6183C16.6932 91.6231 19.825 91.0937 19.9973 90.1543C20.861 85.6048 21.9842 81.0458 23.5818 76.6914C24.8452 73.266 26.6483 69.6465 30.0064 67.8747C30.4714 67.6256 30.8919 67.172 30.3303 66.8263C29.7687 66.4806 28.6247 66.9021 28.1275 67.1616Z" fill="#FFF297"/>
<path d="M34.6016 80.8509C26.5784 86.4374 24.5812 96.4209 24.8833 105.626C24.9051 106.339 28.0472 105.799 28.015 104.783C27.7233 96.1509 29.4621 86.372 37.0421 81.0999C37.5705 80.7325 37.3868 80.3433 36.8148 80.2571C36.1026 80.1378 35.184 80.4512 34.6016 80.8509Z" fill="#FFF297"/>
<path d="M48.8055 91.4186C41.8951 97.1121 38.3003 106.167 39.6176 115.059C39.8335 116.485 42.9643 115.707 42.7484 114.216C41.5826 106.318 44.6917 97.9228 50.8682 92.8231C52.5094 91.4726 49.9941 90.4347 48.7951 91.4186H48.8055Z" fill="#FFF297"/>
<path d="M50.293 105.573C49.1376 112.768 46.5144 119.651 42.6051 125.799C42.3247 126.231 43.7282 126.037 43.8362 126.015C44.3656 125.918 45.359 125.723 45.6829 125.216C49.6348 118.992 52.258 112.023 53.4248 104.74C53.457 104.514 50.4331 104.686 50.293 105.583V105.573Z" fill="#FFF297"/>
<path d="M50.534 129.98C59.3337 123.141 66.3199 114.184 70.6611 103.897C71.2975 102.385 68.1666 102.634 67.7129 103.714C63.5555 113.557 56.969 122.287 48.5368 128.846C46.8634 130.142 49.4544 130.813 50.534 129.98Z" fill="#FFF297"/>
<path d="M77.4538 102.244C78.0049 109.343 76.6014 116.485 73.4696 122.87C73.1562 123.508 74.5274 123.519 74.8087 123.486C75.4887 123.4 76.2775 123.097 76.59 122.46C79.7862 115.923 81.1358 108.651 80.5742 101.412C80.4984 100.462 77.3571 101.109 77.4433 102.255L77.4538 102.244Z" fill="#FFF297"/>
<path d="M66.3617 31.5811C75.7012 34.6069 85.9272 38.0966 91.5847 46.6975C92.1245 47.5081 95.1588 46.5138 94.4996 45.4976C88.7664 36.7898 78.315 33.1807 68.8666 30.1123C68.1545 29.885 67.2908 30.0365 66.6535 30.4258C66.3182 30.6303 65.6278 31.333 66.3617 31.5707V31.5811Z" fill="#FFF297"/>
<path d="M36.0207 44.7418C40.502 44.1262 45.0364 44.1366 49.5073 44.8062C50.263 44.9151 51.1484 44.7522 51.7204 44.2124C52.1741 43.791 52.0983 43.1754 51.4184 43.0779C46.4513 42.343 41.4197 42.289 36.4422 42.9699C35.8692 43.0456 34.7792 43.3591 34.6712 44.0505C34.5633 44.7418 35.5889 44.8062 36.0321 44.7522L36.0207 44.7418Z" fill="#FFF297"/>
<path d="M87.4478 100.526C86.5955 109.938 83.9931 119.057 79.7277 127.495C78.9293 129.073 82.0924 129.084 82.7193 127.852C87.0699 119.252 89.7481 109.884 90.6232 100.288C90.7633 98.6785 87.5776 99.1113 87.4478 100.526Z" fill="#FFF297"/>
<path d="M96.9418 100.148C102.632 100.483 107.113 104.686 109.478 109.634C111.842 114.584 112.522 119.802 113.224 125.021C113.397 126.295 116.539 125.55 116.356 124.178C115.599 118.473 114.725 112.638 111.961 107.517C109.154 102.309 104.111 98.4302 98.0858 98.0741C97.3955 98.0305 96.3585 98.29 96.0346 98.9918C95.7108 99.6945 96.3045 100.105 96.9418 100.148Z" fill="#FFF297"/>
<path d="M99.6963 109.387C100.311 113.136 99.4804 116.983 97.4936 120.203C97.0722 120.883 97.8715 121.509 98.4652 121.596C99.2967 121.715 100.063 121.315 100.495 120.613C102.709 117.025 103.497 112.693 102.817 108.544C102.687 107.766 101.542 107.679 100.948 107.831C100.247 108.014 99.5552 108.587 99.685 109.387H99.6963Z" fill="#FFF297"/>
<path d="M126.958 123.53C135.509 119.046 142.355 111.645 146.016 102.688C146.307 101.975 143.273 102.299 142.917 103.184C139.494 111.591 133.166 118.711 125.112 122.935C124.68 123.163 124.205 123.562 124.766 123.898C125.328 124.232 126.483 123.79 126.969 123.541L126.958 123.53Z" fill="#FFF297"/>
<path d="M129.752 103.195C129.848 106.414 128.78 109.624 126.803 112.152C126.35 112.736 127.193 113.038 127.645 113.038C128.369 113.038 129.254 112.79 129.718 112.195C131.9 109.386 133.002 105.907 132.894 102.363C132.894 102.125 132.451 101.984 132.289 101.952C131.932 101.876 131.468 101.93 131.123 102.028C130.572 102.19 129.74 102.515 129.762 103.206L129.752 103.195Z" fill="#FFF297"/>
<path d="M155.356 96.5507C155.529 102.32 155.064 108.101 153.888 113.763C153.607 115.102 153.218 116.41 152.948 117.749C152.787 118.559 152.883 119.197 153.834 119.262C154.568 119.316 156.285 118.981 156.577 118.138C156.889 117.253 155.669 117.403 155.162 117.501C154.752 117.587 153.413 117.825 153.326 118.365C153.24 118.905 154.32 118.733 154.578 118.679L154.698 118.657L153.51 118.603C153.445 118.743 153.488 118.733 153.639 118.571L156.123 118.008C155.755 117.954 156.997 113.104 157.105 112.585C157.451 110.845 157.732 109.095 157.948 107.334C158.434 103.476 158.606 99.5973 158.488 95.7183C158.466 95.1785 155.334 95.6643 155.356 96.5612V96.5507Z" fill="#FFF297"/>
<path d="M152.626 74.6487C160.659 76.1507 167.624 81.6396 171.251 88.9222C171.888 90.1865 174.858 89.0198 174.113 87.5282C170.139 79.5761 162.387 73.9574 153.695 72.337C152.129 72.0454 150.542 74.2605 152.626 74.6487Z" fill="#FFF297"/>
<path d="M154.375 60.1603C158.555 60.1603 162.625 61.846 165.767 64.5573C166.761 65.4219 169.524 63.9522 168.196 62.7968C164.45 59.5551 159.601 57.9452 154.689 57.9556C154.03 57.9556 153.048 58.4642 152.95 59.1877C152.854 59.9983 153.803 60.1489 154.375 60.1489V60.1603Z" fill="#FFF297"/>
<path d="M155.338 41.6517C160.435 41.3705 165.466 42.451 170.034 44.7419C170.67 45.0553 171.675 44.7419 172.236 44.418C172.657 44.1803 173.186 43.6395 172.539 43.3157C167.615 40.8411 162.076 39.7283 156.591 40.0314C155.932 40.0636 154.906 40.2359 154.518 40.8525C154.128 41.468 154.83 41.6839 155.338 41.6517Z" fill="#FFF297"/>
<path d="M110.526 47.0546C115.568 44.742 120.34 41.8251 124.702 38.3998C125.22 37.9888 125.502 37.2217 124.864 36.7681C124.228 36.3144 123.201 36.4982 122.619 36.9518C118.451 40.2256 113.938 42.9805 109.132 45.1956C108.56 45.4551 107.945 46.19 108.398 46.8169C108.852 47.4429 109.91 47.3463 110.526 47.0546Z" fill="#FFF297"/>
<path d="M54.0381 60.8193C52.073 62.3213 48.2944 61.576 47.7214 63.9739C47.247 65.9512 49.7405 67.1937 51.6952 67.7345C57.2778 69.279 62.6759 71.4619 67.7727 74.2064C69.8353 75.3192 72.1243 77.0475 71.8866 79.3819C71.4765 83.4228 64.1986 83.9522 64.0471 88.0149C63.9392 90.8778 67.4914 92.2396 70.3097 92.7472C81.0745 94.681 92.1424 96.6148 102.875 94.4755C108.296 93.3959 114.159 90.5974 115.659 85.2704C116.436 82.526 116.112 79.112 118.347 77.3505C119.546 76.4101 121.166 76.2482 122.689 76.0967C127.374 75.6108 132.266 74.6704 135.85 71.6135C139.436 68.5555 141.109 62.8071 138.312 59.0152C136.347 56.3569 132.892 55.3739 129.663 54.6817C104.17 49.1937 77.0156 51.7327 52.9689 61.8459" fill="#BF8F25"/>
</g>
<mask id="mask1_58_82" style="mask-type:luminance" maskUnits="userSpaceOnUse" x="88" y="0" width="61" height="81">
<path d="M148.318 0H88.9878V80.6278H148.318V0Z" fill="white"/>
</mask>
<g mask="url(#mask1_58_82)">
<path d="M146.329 56.4596C144.316 65.7432 140.302 72.2445 134.733 75.8952C128.505 79.9741 120.387 81.2024 112.259 79.4106C104.129 77.6188 97.7113 72.808 93.7414 66.4875C90.1854 60.831 88.6986 53.5304 90.6996 44.2345C92.0198 38.1281 94.7699 31.2887 98.3818 24.8328C101.904 18.5455 105.874 12.2697 110.547 7.80823C116.541 2.07307 123.306 -0.552065 129.276 0.754824C135.247 2.06171 139.866 7.48153 142.941 15.1988C145.345 21.2162 146.463 28.4382 147.066 35.6374C147.682 43.0289 147.648 50.3532 146.329 56.4596Z" fill="#FEFACF"/>
<path d="M145.524 56.5722C144.161 62.7354 141.733 68.9773 137.093 73.4055C131.838 78.4191 124.313 80.2667 117.235 79.6814C104.544 78.6217 92.9487 69.5521 90.9467 56.505C89.851 49.373 91.5953 42.1283 94.122 35.4915C96.9176 28.1786 100.832 21.1593 105.36 14.8048C109.564 8.91245 115.133 3.00778 122.401 1.26148C128.416 -0.180837 133.84 2.48977 137.574 7.21067C142.539 13.4979 144.518 21.7569 145.58 29.5537C146.788 38.4093 147.381 47.7612 145.524 56.5609C145.413 57.1016 147.034 56.8431 147.134 56.3355C148.89 47.9524 148.42 39.1196 147.392 30.6807C146.464 22.9966 144.742 15.1429 140.493 8.57436C137.16 3.4254 132.096 -0.282175 125.778 0.0114013C118.879 0.338124 112.739 4.52966 108.155 9.47595C102.553 15.5265 98.1809 23.0979 94.6931 30.5453C91.4391 37.5532 88.8338 45.2714 88.9901 53.091C89.2808 67.141 100.283 78.0478 113.735 80.1995C121.54 81.4391 130.082 80.0413 136.501 75.1973C142.472 70.6904 145.547 63.4789 147.123 56.3355C147.246 55.7947 145.625 56.0542 145.513 56.5609L145.524 56.5722Z" fill="#6E3B26"/>
<path d="M136.581 55.5137C135.049 62.5776 132.064 67.5693 127.838 70.3526C123.107 73.4513 116.868 74.4759 110.684 73.1245C104.501 71.7722 99.7157 67.9188 96.6966 63.1193C93.99 58.8264 92.8167 53.3053 94.3367 46.2405C95.8576 39.1757 99.6485 31.3458 104.478 24.8217C110.226 17.0808 117.438 11.053 123.8 12.4508C130.163 13.8477 133.92 22.422 135.955 31.8638C137.666 39.8188 138.057 48.6743 136.581 55.5137Z" fill="white"/>
<path d="M106.288 61.3948C107.182 61.3948 107.551 60.2688 106.444 60.2688C105.55 60.2688 105.181 61.3948 106.288 61.3948Z" fill="white"/>
<path d="M127.3 70.5997C127.87 70.5997 129.033 69.7322 127.948 69.7322C127.378 69.7322 126.215 70.5997 127.3 70.5997Z" fill="#F3B27B"/>
<path d="M131.786 63.6816C132.491 63.6816 133.463 62.6001 132.379 62.6001C131.675 62.6001 130.702 63.6816 131.786 63.6816Z" fill="#F3B27B"/>
<path d="M123.797 65.3041C124.401 65.3041 125.519 64.3921 124.434 64.3921C123.831 64.3921 122.712 65.3041 123.797 65.3041Z" fill="#F3B27B"/>
<path d="M133.725 66.9043C134.218 66.9043 135.481 66.1609 134.408 66.1609C133.916 66.1609 132.652 66.9043 133.725 66.9043Z" fill="#F3B27B"/>
<path d="M135.113 57.9362C136.041 57.9362 136.355 56.7192 135.248 56.7192C134.319 56.7192 134.006 57.9362 135.113 57.9362Z" fill="#F3B27B"/>
<path d="M113.476 12.6977C113.364 12.7773 113.274 12.8445 113.197 12.9572C113.174 12.9913 113.163 13.0245 113.141 13.0586C113.107 13.1258 113.096 13.1826 113.085 13.2499C113.062 13.408 113.085 13.5652 113.085 13.712V13.5879C113.085 13.712 113.085 13.8474 113.051 13.9601L113.107 13.8361C113.107 13.8361 113.096 13.8702 113.085 13.8806L113.185 13.7575C113.185 13.7575 113.174 13.7688 113.163 13.7792L113.308 13.6666C113.197 13.7461 113.029 13.8702 113.006 14.0274C112.985 14.1628 113.062 14.2755 113.174 14.3314C113.342 14.4109 113.532 14.4223 113.711 14.3995C113.923 14.3654 114.147 14.3096 114.326 14.1855C114.437 14.106 114.527 14.0387 114.606 13.926C114.628 13.8919 114.639 13.8588 114.662 13.8247C114.695 13.7575 114.706 13.7006 114.718 13.6334C114.739 13.4753 114.718 13.318 114.718 13.1713V13.2953C114.718 13.1713 114.718 13.0358 114.751 12.9231L114.695 13.0472C114.695 13.0472 114.706 13.0131 114.718 13.0017L114.616 13.1258C114.616 13.1258 114.628 13.1144 114.639 13.104L114.493 13.2167C114.606 13.1372 114.774 13.0131 114.795 12.8559C114.818 12.7205 114.739 12.6078 114.628 12.5519C114.46 12.4724 114.27 12.461 114.091 12.4837C113.879 12.5178 113.655 12.5737 113.476 12.6977Z" fill="#F3B27B"/>
<path d="M119.985 9.69004L120.052 9.6105L120.164 9.53189L120.32 9.45328L120.511 9.37375C120.511 9.37375 120.511 9.37375 120.499 9.37375L120.713 9.30649C120.713 9.30649 120.701 9.30649 120.69 9.30649L120.902 9.26103C120.902 9.26103 120.869 9.26103 120.846 9.26103L121.048 9.22788C120.958 9.23925 120.869 9.25062 120.779 9.26103C120.701 9.2724 120.611 9.28377 120.534 9.30649C120.366 9.34059 120.22 9.37374 120.064 9.43056C119.918 9.48644 119.773 9.54325 119.639 9.63322C119.594 9.66731 119.515 9.71182 119.504 9.76865C119.482 9.80274 119.482 9.83589 119.504 9.85861C119.527 9.89271 119.571 9.91543 119.627 9.91543C119.706 9.92585 119.773 9.92585 119.851 9.91543C119.952 9.91543 120.041 9.90406 120.141 9.88133C120.355 9.83587 120.567 9.78 120.757 9.69004L120.913 9.6105C120.992 9.57736 121.048 9.52052 121.092 9.45328L121.025 9.53189L120.913 9.6105L120.757 9.69004L120.567 9.76865C120.567 9.76865 120.567 9.76865 120.578 9.76865L120.366 9.83587C120.366 9.83587 120.376 9.83587 120.388 9.83587L120.176 9.88133C120.176 9.88133 120.209 9.88133 120.231 9.88133L120.03 9.91543C120.12 9.90407 120.209 9.89269 120.299 9.88133C120.376 9.86997 120.466 9.8586 120.545 9.83587C120.713 9.80272 120.857 9.76865 121.014 9.71183C121.16 9.65595 121.304 9.59911 121.439 9.50915C121.483 9.476 121.562 9.43057 121.573 9.37375C121.595 9.3406 121.595 9.30651 121.573 9.28378C121.551 9.25063 121.506 9.22788 121.45 9.22788C121.372 9.21652 121.304 9.21652 121.227 9.22788C121.125 9.22788 121.036 9.23925 120.936 9.26103C120.723 9.30649 120.511 9.36331 120.32 9.45328L120.164 9.53189C120.086 9.56598 120.03 9.62185 119.985 9.69004Z" fill="#F3B27B"/>
<path d="M110.113 17.6668C110.091 17.7682 110.091 17.8695 110.113 17.9822C110.124 18.0608 110.135 18.1403 110.135 18.2189V18.129C110.135 18.129 110.135 18.1517 110.135 18.1621C110.113 18.2076 110.113 18.253 110.147 18.2862C110.169 18.3316 110.214 18.3657 110.27 18.3657C110.347 18.3875 110.426 18.3989 110.505 18.3875C110.605 18.3875 110.694 18.3875 110.795 18.3657L111.019 18.3203C111.153 18.2862 111.287 18.2303 111.421 18.1735L111.578 18.0835C111.656 18.039 111.712 17.9708 111.757 17.9036C111.779 17.8022 111.779 17.7009 111.757 17.5882C111.745 17.5087 111.735 17.4301 111.735 17.3515V17.4414C111.735 17.4414 111.735 17.4187 111.735 17.4073C111.757 17.3628 111.757 17.3174 111.723 17.2833C111.701 17.2388 111.656 17.2047 111.6 17.2047C111.522 17.1819 111.444 17.1706 111.365 17.182C111.265 17.182 111.175 17.1819 111.075 17.2047L110.851 17.2501C110.717 17.2833 110.582 17.3401 110.449 17.396L110.292 17.4869C110.214 17.5314 110.158 17.5996 110.113 17.6668Z" fill="#F3B27B"/>
<path d="M116.474 15.4697C117.178 15.4697 118.151 14.3882 117.066 14.3882C116.362 14.3882 115.389 15.4697 116.474 15.4697Z" fill="#F3B27B"/>
<path d="M98.5619 62.7912C98.9085 62.7912 100.395 62.1273 99.6131 62.1273C99.2665 62.1273 97.7787 62.7912 98.5619 62.7912Z" fill="#F3B27B"/>
<path d="M96.6839 48.7639C97.0419 48.7639 98.5173 48.0878 97.7351 48.0878C97.3771 48.0878 95.9007 48.7639 96.6839 48.7639Z" fill="#F3B27B"/>
<path d="M99.8034 55.434C100.284 55.434 101.559 54.7133 100.485 54.7133C100.005 54.7133 98.7304 55.434 99.8034 55.434Z" fill="#F3B27B"/>
<path d="M96.9539 52.4823C97.9038 52.4823 98.1727 51.2095 97.076 51.2095C96.1262 51.2095 95.8582 52.4823 96.9539 52.4823Z" fill="#F3B27B"/>
<path d="M135.524 31.9471C134.45 32.4348 133.292 32.7558 132.093 32.9092C133.32 32.1706 134.268 30.9991 134.715 29.5909C133.558 30.2879 132.274 30.7756 130.921 31.055C129.82 29.8551 128.272 29.1581 126.515 29.1581C123.238 29.1581 120.561 31.8353 120.561 35.1404C120.561 35.6149 120.617 36.0751 120.714 36.507C115.749 36.256 111.329 33.8714 108.387 30.2595C107.871 31.1383 107.578 32.1706 107.578 33.2577C107.578 35.3355 108.623 37.1765 110.241 38.222C109.251 38.222 108.331 37.9436 107.522 37.525V37.5667C107.522 40.4674 109.586 42.8937 112.319 43.4382C111.441 43.6778 110.52 43.7119 109.627 43.5358C110.006 44.7243 110.748 45.7641 111.749 46.5094C112.749 47.2556 113.958 47.6686 115.205 47.6913C113.091 49.3647 110.469 50.27 107.773 50.2568C107.299 50.2568 106.824 50.2293 106.351 50.1734C108.999 51.8743 112.151 52.8648 115.526 52.8648C126.515 52.8648 132.553 43.7451 132.553 35.8374C132.553 35.5732 132.553 35.3222 132.539 35.0571C133.71 34.2199 134.715 33.1602 135.524 31.9471Z" fill="#6E3B26"/>
</g>
<mask id="mask2_58_82" style="mask-type:luminance" maskUnits="userSpaceOnUse" x="31" y="2" width="82" height="96">
<path d="M87.6454 2.7174L31.1924 20.9679L55.9943 97.6862L112.447 79.4357L87.6454 2.7174Z" fill="white"/>
</mask>
<g mask="url(#mask2_58_82)">
<path d="M103.119 57.0514C104.059 66.5046 102.24 73.9254 98.0639 79.1123C93.3932 84.909 86.0462 88.5749 77.7607 89.3704C69.4743 90.1668 61.8877 87.5635 56.1658 82.7697C51.0424 78.4815 47.3822 71.9926 46.4266 62.5318C45.8035 56.3156 46.3177 48.961 47.7676 41.7078C49.1853 34.642 51.032 27.4494 54.107 21.7664C58.0457 14.4658 63.6747 9.88691 69.7584 9.29313C75.8421 8.70029 81.903 12.4363 87.2025 18.8344C91.341 23.8195 94.6272 30.3483 97.4162 37.0125C100.275 43.8566 102.496 50.8352 103.119 57.0514Z" fill="#FEFACF"/>
<path d="M102.386 57.4066C102.984 63.691 102.595 70.376 99.5416 76.0174C96.084 82.4041 89.4918 86.4772 82.5766 88.0976C70.1754 90.9936 56.3517 85.9299 50.4338 74.1309C47.1969 67.6817 46.6287 60.2514 46.9914 53.1601C47.4024 45.3424 48.9669 37.4594 51.3212 30.0196C53.5088 23.1196 56.991 15.7888 63.3692 11.8908C68.6498 8.6681 74.6311 9.54127 79.6371 12.8843C86.2956 17.339 90.7191 24.5885 94.1284 31.6807C98.0008 39.7361 101.442 48.4524 102.383 57.3961C102.442 57.9454 103.905 57.2001 103.845 56.6859C102.937 48.1702 99.7727 39.9094 96.1986 32.1959C92.9513 25.17 88.897 18.2273 82.8333 13.2839C78.0792 9.40963 72.1187 7.44077 66.1979 9.66248C59.7336 12.0954 55.1821 17.9716 52.3411 24.0885C48.8721 31.569 47.0416 40.1187 46.0131 48.2782C45.0727 55.9472 44.9676 64.0925 47.5217 71.485C52.1204 84.7641 65.945 91.7569 79.406 89.6668C87.2132 88.4452 94.9125 84.4885 99.5293 77.9039C103.824 71.7785 104.531 63.9713 103.834 56.6896C103.785 56.1375 102.322 56.8828 102.372 57.3999L102.386 57.4066Z" fill="#6E3B26"/>
<path d="M93.5496 59.1509C94.2656 66.3444 92.9597 72.0114 89.7947 75.9596C86.2472 80.3632 80.6256 83.2582 74.326 83.8738C68.0264 84.4894 62.2875 82.2951 57.9378 78.6567C54.0427 75.4046 51.2273 70.5123 50.5009 63.3225C49.7755 56.1327 50.9734 47.5158 53.5626 39.8222C56.6499 30.6891 61.6587 22.7351 68.142 22.1072C74.6263 21.4793 80.8378 28.4825 85.6789 36.84C89.754 43.883 92.8507 52.1893 93.5496 59.1509Z" fill="white"/>
<path d="M66.5362 74.0646C67.3875 73.79 67.3923 72.6043 66.3392 72.9443C65.4878 73.2199 65.4831 74.4056 66.5362 74.0646Z" fill="white"/>
<path d="M89.3613 76.361C89.9039 76.1849 90.7439 75.002 89.7116 75.3354C89.169 75.5106 88.329 76.6944 89.3613 76.361Z" fill="#F3B27B"/>
<path d="M91.5016 68.3984C92.1711 68.1825 92.764 66.8538 91.7327 67.1872C91.0622 67.404 90.4693 68.7327 91.5016 68.3984Z" fill="#F3B27B"/>
<path d="M84.3983 72.3987C84.9722 72.2131 85.7554 71.0009 84.7241 71.3343C84.1492 71.5199 83.366 72.7321 84.3983 72.3987Z" fill="#F3B27B"/>
<path d="M94.3367 70.8666C94.8046 70.7161 95.7781 69.6194 94.7572 69.9499C94.2894 70.1005 93.3158 71.1972 94.3367 70.8666Z" fill="#F3B27B"/>
<path d="M92.8962 61.9068C93.7788 61.6208 93.703 60.3669 92.6499 60.7069C91.7664 60.9929 91.8431 62.2468 92.8962 61.9068Z" fill="#F3B27B"/>
<path d="M58.3944 25.5185C58.3121 25.6274 58.2477 25.7192 58.2079 25.8509C58.1975 25.8897 58.1965 25.9257 58.1861 25.9645C58.1748 26.0393 58.1814 26.0962 58.1918 26.1634C58.2193 26.3206 58.2884 26.4636 58.3339 26.6038L58.296 26.4854C58.3339 26.6038 58.3755 26.7316 58.3784 26.85L58.3935 26.7146C58.3935 26.7146 58.3935 26.7496 58.3859 26.7638L58.4437 26.6151C58.4437 26.6151 58.4362 26.6293 58.4295 26.6435L58.5328 26.492C58.4504 26.6009 58.3291 26.7704 58.3566 26.9276C58.3765 27.0631 58.4864 27.1464 58.6095 27.1654C58.7932 27.189 58.9778 27.1417 59.1407 27.065C59.333 26.9674 59.5281 26.8453 59.6606 26.672C59.743 26.5621 59.8064 26.4702 59.8472 26.3395C59.8576 26.3007 59.8576 26.2647 59.869 26.2259C59.8794 26.1511 59.8728 26.0943 59.8633 26.0261C59.8358 25.8689 59.7657 25.7259 59.7212 25.5867L59.7591 25.7041C59.7213 25.5867 59.6796 25.4579 59.6767 25.3404L59.6616 25.4759C59.6616 25.4759 59.6616 25.4399 59.6691 25.4257L59.6114 25.5744C59.6114 25.5744 59.618 25.5602 59.6256 25.546L59.5224 25.6984C59.6038 25.5885 59.726 25.419 59.6985 25.2628C59.6777 25.1264 59.5688 25.044 59.4447 25.0241C59.261 25.0014 59.0773 25.0488 58.9134 25.1255C58.7221 25.223 58.5261 25.3452 58.3944 25.5185Z" fill="#F3B27B"/>
<path d="M63.6617 20.6534L63.7015 20.5577L63.7838 20.4479L63.9079 20.3248L64.0651 20.1913C64.0651 20.1913 64.0651 20.1913 64.0538 20.195L64.2356 20.0653C64.2356 20.0653 64.2252 20.0691 64.2138 20.0719L64.4022 19.9639C64.4022 19.9639 64.371 19.9744 64.3492 19.981L64.5301 19.8872C64.4487 19.9251 64.3672 19.964 64.2858 20.0018C64.2147 20.0369 64.1323 20.0748 64.0651 20.1202C63.9164 20.2045 63.7886 20.2812 63.657 20.3825C63.5357 20.481 63.4145 20.5795 63.3151 20.7064C63.2829 20.7528 63.2222 20.8191 63.2289 20.8759C63.2175 20.9157 63.228 20.9479 63.2564 20.9621C63.2876 20.9877 63.3378 20.9953 63.3908 20.9782C63.4685 20.965 63.5319 20.9441 63.603 20.9091C63.6996 20.8778 63.781 20.8399 63.87 20.7879C64.0575 20.6789 64.2431 20.5606 64.3956 20.4157L64.5206 20.2926C64.585 20.2367 64.6201 20.1657 64.6418 20.088L64.603 20.1837L64.5206 20.2926L64.3956 20.4157L64.2394 20.5492C64.2394 20.5492 64.2393 20.5492 64.2498 20.5464L64.0689 20.6761C64.0689 20.6761 64.0793 20.6723 64.0897 20.6686L63.9013 20.7774C63.9013 20.7774 63.9335 20.767 63.9543 20.7604L63.7734 20.8542C63.8549 20.8163 63.9373 20.7774 64.0187 20.7396C64.0898 20.7045 64.1712 20.6666 64.2384 20.6212C64.3881 20.5369 64.5159 20.4602 64.6476 20.3589C64.7688 20.2604 64.89 20.1619 64.9894 20.035C65.0216 19.9886 65.0822 19.9223 65.0756 19.8645C65.086 19.8257 65.0756 19.7935 65.0481 19.7793C65.0159 19.7537 64.9667 19.7461 64.9137 19.7632C64.8351 19.7764 64.7716 19.7973 64.7006 19.8323C64.6049 19.8626 64.5235 19.9015 64.4344 19.9535C64.246 20.0615 64.0613 20.1808 63.9079 20.3248L63.7838 20.4479C63.7194 20.5047 63.6835 20.5757 63.6617 20.6534Z" fill="#F3B27B"/>
<path d="M56.7185 31.2811C56.7289 31.3843 56.7601 31.4809 56.816 31.5813C56.8511 31.6533 56.8861 31.7243 56.9098 31.8001L56.8823 31.7139C56.8823 31.7139 56.8889 31.7357 56.8927 31.7461C56.8851 31.7963 56.8994 31.8389 56.941 31.8607C56.977 31.8967 57.0291 31.9147 57.0831 31.8976C57.1645 31.8948 57.2422 31.8815 57.3132 31.8474C57.4089 31.8162 57.4941 31.7887 57.5831 31.7366L57.782 31.6249C57.8994 31.551 58.0093 31.4563 58.1201 31.3616L58.2413 31.2271C58.3019 31.1608 58.3341 31.0784 58.3559 31.0008C58.3454 30.8976 58.3142 30.801 58.2583 30.7006C58.2233 30.6286 58.1892 30.5576 58.1646 30.4828L58.192 30.568C58.192 30.568 58.1854 30.5462 58.1816 30.5358C58.1892 30.4866 58.1759 30.443 58.1333 30.4212C58.0983 30.3852 58.0453 30.3673 57.9922 30.3843C57.9108 30.3871 57.8322 30.4004 57.7611 30.4354C57.6655 30.4657 57.5803 30.4932 57.4922 30.5462L57.2933 30.658C57.1759 30.7309 57.0651 30.8256 56.9553 30.9212L56.834 31.0548C56.7734 31.122 56.7403 31.2035 56.7185 31.2811Z" fill="#F3B27B"/>
<path d="M62.1032 27.2334C62.7737 27.0166 63.3665 25.6879 62.3352 26.0213C61.6647 26.2381 61.0719 27.5668 62.1032 27.2334Z" fill="#F3B27B"/>
<path d="M59.6127 77.7712C59.9422 77.6642 61.1526 76.5742 60.4082 76.8147C60.0777 76.9217 58.8674 78.0118 59.6127 77.7712Z" fill="#F3B27B"/>
<path d="M53.509 65.0015C53.8499 64.8907 55.046 63.7941 54.3016 64.0346C53.9607 64.1445 52.7646 65.2421 53.509 65.0015Z" fill="#F3B27B"/>
<path d="M58.5295 70.3881C58.9869 70.2404 59.9785 69.1627 58.9566 69.4923C58.4992 69.6409 57.5086 70.7186 58.5295 70.3881Z" fill="#F3B27B"/>
<path d="M54.909 68.4564C55.8134 68.1648 55.6771 66.8702 54.6344 67.2073C53.73 67.5 53.8664 68.7936 54.909 68.4564Z" fill="#F3B27B"/>
<path fill-rule="evenodd" clip-rule="evenodd" d="M78.7825 59.184V59.1811L78.8062 59.1253L82.7032 39.4774V39.4159C82.7032 38.9253 82.5213 38.4982 82.1293 38.2425C81.7846 38.0171 81.3887 38.0019 81.1103 38.0228C80.8518 38.0455 80.596 38.0985 80.3489 38.1781C80.2438 38.2122 80.1396 38.251 80.0373 38.2927L80.0203 38.2993L58.2937 46.8225L58.2871 46.8244C58.2208 46.8471 58.1564 46.8737 58.0939 46.904C57.9386 46.9731 57.7908 47.0564 57.6507 47.1511C57.3713 47.3434 56.8391 47.7951 56.9291 48.5129C57.0029 49.1077 57.413 49.4846 57.6895 49.6806C57.8524 49.7952 58.0285 49.8908 58.2132 49.9666L58.2549 49.9846L58.2672 49.9894L58.2766 49.9931L62.079 51.2725C62.0657 51.5103 62.0894 51.7537 62.1528 51.9942L64.0563 59.2171C64.1605 59.6111 64.3849 59.9624 64.6993 60.2219C65.0128 60.4814 65.4001 60.6358 65.8064 60.6642C66.2127 60.6926 66.618 60.5922 66.9646 60.3782C67.3112 60.1651 67.5821 59.8478 67.7393 59.4719L70.712 56.2937L75.8174 60.2077L75.8903 60.239C76.3543 60.4416 76.7871 60.5051 77.183 60.452C77.5798 60.3971 77.8942 60.2314 78.131 60.0429C78.4037 59.8204 78.6225 59.5382 78.7674 59.2171L78.7778 59.1953L78.7816 59.1878L78.7825 59.184ZM64.0374 51.4979C64.0156 51.4174 64.0213 51.3322 64.0516 51.2555C64.0819 51.1788 64.1359 51.1125 64.2059 51.0689L77.0978 42.882C77.0978 42.882 77.8563 42.4208 77.8288 42.882C77.8288 42.882 77.9643 42.9624 77.558 43.3412C77.1725 43.7011 68.3691 52.2006 67.4779 53.0605C67.4287 53.1088 67.3936 53.1704 67.3775 53.2376L65.9409 58.7209L64.0374 51.4979Z" fill="#6E3B26"/>
</g>
</svg>
