<svg width="30" height="30" viewBox="0 0 30 30" fill="none" xmlns="http://www.w3.org/2000/svg">
<path fill-rule="evenodd" clip-rule="evenodd" d="M25.4158 10.125C25.3995 9.58559 25.2438 9.05963 24.9638 8.5983C24.6839 8.13697 24.2892 7.75599 23.8183 7.49247L21.4296 5.99997L16.6721 3.01247C16.1775 2.67164 15.5896 2.49206 14.989 2.49833C14.3884 2.50459 13.8044 2.6964 13.3171 3.04747C12.0296 3.85997 10.7379 4.6658 9.44206 5.46497L8.69206 5.92997C7.85206 6.45747 7.00456 6.97872 6.17206 7.51372C5.34456 8.04122 4.58831 9.07622 4.58081 10.0825V19.7225C4.59199 20.2842 4.74585 20.8338 5.02793 21.3197C5.31002 21.8056 5.71105 22.2117 6.19331 22.5L9.88706 24.82L13.3108 26.9587C13.8232 27.318 14.4355 27.5072 15.0612 27.4998C15.6869 27.4924 16.2946 27.2887 16.7983 26.9175C18.0258 26.1175 19.2696 25.3475 20.5121 24.5837C21.6446 23.875 22.7833 23.1737 23.9083 22.4512C24.3579 22.1633 24.7302 21.7699 24.993 21.3052C25.2557 20.8405 25.4009 20.3186 25.4158 19.785V10.125ZM19.1521 19.1675C18.0194 19.9484 16.8613 20.6917 15.6796 21.3962C15.4767 21.5278 15.2401 21.5977 14.9983 21.5975C14.7396 21.5915 14.4875 21.5145 14.2696 21.375C13.5196 20.9175 12.9633 20.5837 12.3946 20.25L10.2071 18.9312C9.41456 18.4437 9.42831 17.625 9.44206 16.8187V16.5837C9.44751 16.5005 9.42971 16.4173 9.39064 16.3436C9.35157 16.2699 9.29277 16.2085 9.22081 16.1662C8.88706 15.9662 8.55331 15.7287 8.21331 15.4937C7.85206 15.2437 7.49081 14.9862 7.12956 14.7712C6.84456 14.5962 6.67206 14.6875 6.67206 15.0275V15.75C6.66456 16.7362 6.65706 17.7225 6.69206 18.7087C6.71956 19.5975 7.15706 20.3062 7.94206 20.7925L13.6721 24.3125C14.5746 24.8687 15.4633 24.8475 16.3596 24.2925L18.9708 22.695C20.0121 22.0562 21.0546 21.4237 22.0833 20.7787C22.4426 20.5576 22.7437 20.2536 22.9612 19.8921C23.1787 19.5306 23.3063 19.1222 23.3333 18.7012C23.3733 18.2637 22.9783 18.0487 22.6171 17.8475L22.3883 17.7225C21.8671 17.41 21.0821 16.9162 20.1508 16.3337C18.8533 15.5212 17.2696 14.5337 15.7558 13.6112C15.7558 13.6112 19.1171 19.1387 19.1583 19.1675H19.1521ZM14.3183 8.60497C13.1371 9.30981 11.979 10.0527 10.8458 10.8325C11.9838 12.6809 13.1159 14.533 14.2421 16.3887C12.7716 15.4894 11.3062 14.5818 9.84581 13.6662C8.91456 13.0837 8.12956 12.5912 7.60831 12.2787L7.37956 12.1537C7.01831 11.9512 6.61706 11.7362 6.67206 11.2987C6.69728 10.8773 6.82329 10.4681 7.0395 10.1055C7.25571 9.74291 7.55581 9.4375 7.91456 9.21497L11.0271 7.30497L13.6371 5.70747C14.0299 5.43144 14.4976 5.28166 14.9777 5.27808C15.4578 5.27451 15.9276 5.41731 16.3246 5.68747L20.1096 8.01247L22.0546 9.19997C22.4264 9.4102 22.7372 9.71353 22.9563 10.0802C23.1755 10.4468 23.2955 10.8642 23.3046 11.2912C23.3396 12.2787 23.3321 13.2637 23.3258 14.2437V14.9725C23.3258 15.3125 23.1508 15.4025 22.8671 15.2287C22.5046 15.0137 22.1446 14.7575 21.7833 14.5062C21.4433 14.2712 21.1096 14.035 20.7771 13.8337C20.7049 13.7916 20.6458 13.7303 20.6065 13.6566C20.5672 13.5828 20.5492 13.4996 20.5546 13.4162V13.18C20.5671 12.375 20.5821 11.555 19.7908 11.0687L17.6033 9.74997C16.9746 9.38112 16.3496 9.0061 15.7283 8.62497C15.5108 8.48341 15.2578 8.40627 14.9983 8.40247C14.7683 8.40414 14.5416 8.47247 14.3183 8.60497Z" fill="black"/>
</svg>
